<svg width="48" height="48" viewBox="0 0 48 48" fill="none" xmlns="http://www.w3.org/2000/svg">
<g clip-path="url(#clip0_64_3943)">
<path d="M35.5393 26.2575H32.9403C32.8181 26.2575 32.7009 26.209 32.6145 26.1226C32.528 26.0362 32.4795 25.9189 32.4795 25.7967C32.4795 25.6745 32.528 25.5573 32.6145 25.4709C32.7009 25.3845 32.8181 25.3359 32.9403 25.3359H35.5393C35.6615 25.3359 35.7787 25.3845 35.8652 25.4709C35.9516 25.5573 36.0001 25.6745 36.0001 25.7967C36.0001 25.9189 35.9516 26.0362 35.8652 26.1226C35.7787 26.209 35.6615 26.2575 35.5393 26.2575Z" fill="#EE1C25"/>
<path d="M15.0598 26.2575H12.4608C12.3386 26.2575 12.2214 26.209 12.135 26.1226C12.0485 26.0362 12 25.9189 12 25.7967C12 25.6745 12.0485 25.5573 12.135 25.4709C12.2214 25.3845 12.3386 25.3359 12.4608 25.3359H15.0598C15.1821 25.3359 15.2993 25.3845 15.3857 25.4709C15.4721 25.5573 15.5206 25.6745 15.5206 25.7967C15.5206 25.9189 15.4721 26.0362 15.3857 26.1226C15.2993 26.209 15.1821 26.2575 15.0598 26.2575Z" fill="#EE1C25"/>
<path d="M24.4924 14.2879V16.8859C24.4924 17.0082 24.4438 17.1254 24.3574 17.2118C24.271 17.2982 24.1538 17.3467 24.0316 17.3467C23.9094 17.3467 23.7922 17.2982 23.7058 17.2118C23.6193 17.1254 23.5708 17.0082 23.5708 16.8859V14.2879C23.5708 14.1657 23.6193 14.0485 23.7058 13.9621C23.7922 13.8757 23.9094 13.8271 24.0316 13.8271C24.1538 13.8271 24.271 13.8757 24.3574 13.9621C24.4438 14.0485 24.4924 14.1657 24.4924 14.2879Z" fill="#EE1C25"/>
<path d="M32.5154 17.9504L30.6711 19.7792C30.6289 19.8249 30.5778 19.8617 30.5211 19.8872C30.4643 19.9127 30.4029 19.9264 30.3406 19.9275C30.2784 19.9286 30.2165 19.9171 30.1589 19.8937C30.1012 19.8702 30.0489 19.8353 30.005 19.7911C29.9612 19.7469 29.9268 19.6942 29.9039 19.6363C29.881 19.5784 29.8701 19.5165 29.8718 19.4543C29.8734 19.392 29.8877 19.3308 29.9137 19.2742C29.9398 19.2176 29.977 19.1669 30.0231 19.1252L31.8674 17.294C31.9103 17.2505 31.9613 17.2159 32.0176 17.1923C32.0738 17.1686 32.1343 17.1564 32.1953 17.1564C32.2563 17.1563 32.3168 17.1683 32.3731 17.1918C32.4294 17.2153 32.4806 17.2497 32.5235 17.2931C32.5664 17.3365 32.6003 17.388 32.6231 17.4446C32.646 17.5012 32.6573 17.5618 32.6566 17.6228C32.6558 17.6839 32.643 17.7441 32.6187 17.8002C32.5945 17.8562 32.5594 17.9068 32.5154 17.9492V17.9504Z" fill="#EE1C25"/>
<path d="M15.4977 17.9504L17.3432 19.7792C17.4311 19.8588 17.5464 19.9014 17.6649 19.8982C17.7835 19.8949 17.8962 19.8461 17.9797 19.7619C18.0632 19.6776 18.111 19.5644 18.1131 19.4458C18.1152 19.3272 18.0716 19.2124 17.9911 19.1252L16.1456 17.294C16.1028 17.2505 16.0518 17.2159 15.9955 17.1923C15.9392 17.1686 15.8788 17.1564 15.8178 17.1564C15.7568 17.1563 15.6963 17.1683 15.64 17.1918C15.5836 17.2153 15.5325 17.2497 15.4896 17.2931C15.4467 17.3365 15.4128 17.388 15.39 17.4446C15.3671 17.5012 15.3557 17.5618 15.3565 17.6228C15.3572 17.6839 15.3701 17.7441 15.3943 17.8002C15.4186 17.8562 15.4537 17.9068 15.4977 17.9492V17.9504Z" fill="#EE1C25"/>
<path d="M31.3118 30.7177H31.1918V25.5361C31.1918 23.6265 30.4333 21.7952 29.0831 20.4449C27.7329 19.0946 25.9016 18.3361 23.9922 18.3361C22.0827 18.3361 20.2514 19.0946 18.9012 20.4449C17.551 21.7952 16.7925 23.6265 16.7925 25.5361V30.7177H16.6725C16.2179 30.7289 15.785 30.9146 15.4636 31.2363C15.1422 31.558 14.9568 31.991 14.9458 32.4457V33.6553C14.9456 33.7233 14.959 33.7907 14.985 33.8536C15.011 33.9165 15.0492 33.9737 15.0973 34.0218C15.1455 34.0698 15.2027 34.1079 15.2657 34.1338C15.3287 34.1596 15.3961 34.1728 15.4642 34.1725H32.5033C32.5714 34.1728 32.6388 34.1596 32.7018 34.1338C32.7648 34.1079 32.822 34.0698 32.8702 34.0218C32.9183 33.9737 32.9565 33.9165 32.9825 33.8536C33.0086 33.7907 33.0219 33.7233 33.0217 33.6553V32.4457C33.0109 31.9938 32.8279 31.5632 32.51 31.242C32.1921 30.9207 31.7634 30.7331 31.3118 30.7177ZM23.9993 20.5921C24.1517 20.5884 24.303 20.6175 24.4431 20.6775C24.5832 20.7375 24.7087 20.827 24.8112 20.9398C24.9136 21.0526 24.9906 21.1861 25.0369 21.3313C25.0831 21.4765 25.0976 21.63 25.0793 21.7813L24.7445 25.8889C24.7377 25.9796 24.713 26.068 24.6719 26.1492C24.6307 26.2303 24.574 26.3025 24.5048 26.3616C24.4357 26.4207 24.3555 26.4656 24.269 26.4936C24.1824 26.5216 24.0912 26.5322 24.0006 26.5249C23.8126 26.5255 23.6313 26.4551 23.4929 26.3279C23.3546 26.2006 23.2693 26.0258 23.2542 25.8385L22.917 21.7813C22.8918 21.6286 22.9015 21.4722 22.9454 21.3239C22.9892 21.1755 23.0661 21.039 23.1702 20.9246C23.2744 20.8101 23.4031 20.7208 23.5467 20.6632C23.6902 20.6056 23.845 20.5813 23.9993 20.5921ZM25.0637 28.5805C25.0637 28.7903 25.0015 28.9954 24.8849 29.1698C24.7684 29.3443 24.6027 29.4802 24.4089 29.5605C24.2151 29.6408 24.0018 29.6618 23.796 29.6209C23.5902 29.5799 23.4012 29.4789 23.2529 29.3306C23.1045 29.1822 23.0035 28.9932 22.9626 28.7874C22.9217 28.5816 22.9427 28.3683 23.0229 28.1745C23.1032 27.9807 23.2392 27.815 23.4136 27.6984C23.5881 27.5819 23.7932 27.5197 24.0029 27.5197C24.2842 27.52 24.5538 27.6318 24.7527 27.8307C24.9515 28.0296 25.0634 28.2992 25.0637 28.5805ZM32.0605 33.1945H15.9382V32.4457C15.9415 32.2483 16.0213 32.06 16.1608 31.9203C16.3002 31.7807 16.4884 31.7006 16.6857 31.6969H31.3118C31.5091 31.7006 31.6973 31.7807 31.8367 31.9203C31.9762 32.06 32.056 32.2483 32.0593 32.4457L32.0605 33.1945Z" fill="#EE1C25"/>
</g>
<defs>
<clipPath id="clip0_64_3943">
<rect width="24" height="24" fill="white" transform="translate(12 12)"/>
</clipPath>
</defs>
</svg>
