<svg width="24" height="24" viewBox="0 0 24 24" fill="none" xmlns="http://www.w3.org/2000/svg">
<path d="M10.5254 19.9883C10.398 19.9895 10.2727 19.9525 10.1661 19.8828L7.96685 18.5684C7.92895 18.5443 7.88477 18.5339 7.83989 18.5352C7.79634 18.5344 7.7535 18.5448 7.71685 18.5684L5.74224 19.752C5.63576 19.8193 5.51464 19.856 5.38872 19.8594C5.2628 19.8628 5.13736 19.8329 5.02739 19.7715C4.91743 19.71 4.82683 19.6188 4.76372 19.5098C4.70062 19.4007 4.66847 19.2763 4.66997 19.1504V6.06445C4.66879 5.7957 4.72044 5.52995 4.82232 5.28125C4.92419 5.03255 5.07433 4.80593 5.26372 4.61523C5.45311 4.42454 5.67783 4.2735 5.92583 4.16992C6.17383 4.06634 6.44027 4.01237 6.70903 4.01172H17.2989C17.5675 4.01184 17.8322 4.06646 18.0801 4.16992C18.328 4.27339 18.5532 4.42436 18.7422 4.61523C18.9313 4.80611 19.0807 5.03234 19.1817 5.28125C19.2827 5.53016 19.3326 5.79583 19.3301 6.06445V8.82422C19.3299 9.1485 19.202 9.46015 18.9727 9.68945C18.7434 9.91875 18.4318 10.0486 18.1075 10.0488H16.375V19.1484C16.3741 19.2721 16.3397 19.3932 16.2774 19.5C16.2151 19.6068 16.1267 19.6961 16.0196 19.7578C15.9117 19.823 15.7882 19.8574 15.6622 19.8574C15.5361 19.8574 15.4126 19.823 15.3047 19.7578L13.3418 18.5742C13.3032 18.5522 13.2594 18.5425 13.2149 18.543C13.1722 18.5423 13.1302 18.552 13.0938 18.5742L10.8868 19.8926C10.7772 19.9561 10.6521 19.9896 10.5254 19.9883ZM7.8438 17.5547C8.06576 17.5557 8.28314 17.617 8.47271 17.7324L10.5313 18.9746L12.5958 17.7363C12.7852 17.6238 13.0004 17.5645 13.2208 17.5645C13.4411 17.5645 13.6583 17.6238 13.8477 17.7363L15.4043 18.6699V5.9043C15.4062 5.60711 15.4798 5.31523 15.6192 5.05273L15.6583 4.98047H6.71294C6.5718 4.98059 6.43298 5.00801 6.30278 5.0625C6.17259 5.11699 6.05427 5.19643 5.95513 5.29688C5.85598 5.39732 5.77745 5.51754 5.72466 5.64844C5.67187 5.77933 5.64481 5.91942 5.64653 6.06055V18.6797L7.20318 17.7363C7.39488 17.6162 7.61757 17.5527 7.8438 17.5547ZM17.3028 4.98047C17.18 4.97991 17.0568 5.0036 16.9434 5.05078C16.8301 5.09796 16.7287 5.16835 16.6426 5.25586C16.5565 5.34337 16.4888 5.44646 16.4434 5.56055C16.3981 5.67463 16.3764 5.79718 16.379 5.91992V9.07227H18.1114C18.1786 9.07174 18.2435 9.04557 18.2911 8.99805C18.3386 8.95053 18.3648 8.88556 18.3653 8.81836V6.04688C18.3653 5.76467 18.254 5.4928 18.0547 5.29297C17.8555 5.09314 17.585 4.98126 17.3028 4.98047ZM12.2833 14.8359H7.98833C7.85904 14.8359 7.73601 14.7848 7.64458 14.6934C7.55316 14.6019 7.502 14.4769 7.502 14.3477C7.502 14.2184 7.55316 14.0953 7.64458 14.0039C7.73601 13.9125 7.85904 13.8594 7.98833 13.8594H12.2833C12.4125 13.8594 12.5375 13.9125 12.629 14.0039C12.7204 14.0953 12.7715 14.2184 12.7715 14.3477C12.7715 14.4769 12.7204 14.6019 12.629 14.6934C12.5375 14.7848 12.4125 14.8359 12.2833 14.8359ZM12.2833 11.8984H7.98833C7.92502 11.8991 7.86339 11.8871 7.80474 11.8633C7.74609 11.8394 7.6914 11.8044 7.64653 11.7598C7.60167 11.7151 7.56712 11.6621 7.54302 11.6035C7.51891 11.545 7.50746 11.4813 7.50786 11.418C7.50679 11.2889 7.5562 11.1645 7.64653 11.0723C7.73687 10.9801 7.85925 10.9274 7.98833 10.9258H12.2833C12.4131 10.9266 12.5375 10.9801 12.629 11.0723C12.7204 11.1645 12.7718 11.2881 12.7715 11.418C12.77 11.546 12.7182 11.6679 12.627 11.7578C12.5358 11.8477 12.4132 11.8987 12.2852 11.8984H12.2833ZM12.2833 9.0293H7.98833C7.85904 9.0293 7.73601 8.97814 7.64458 8.88672C7.55316 8.79529 7.502 8.67031 7.502 8.54102C7.502 8.41172 7.55316 8.28869 7.64458 8.19727C7.73601 8.10584 7.85904 8.05469 7.98833 8.05469H12.2833C12.4125 8.05469 12.5375 8.10584 12.629 8.19727C12.7204 8.28869 12.7715 8.41172 12.7715 8.54102C12.7715 8.67031 12.7204 8.79529 12.629 8.88672C12.5375 8.97814 12.4125 9.0293 12.2833 9.0293Z" fill="#253844"/>
</svg>
