<svg width="24" height="24" viewBox="0 0 24 24" fill="none" xmlns="http://www.w3.org/2000/svg">
<g clip-path="url(#clip0_611_2043)">
<mask id="mask0_611_2043" style="mask-type:luminance" maskUnits="userSpaceOnUse" x="0" y="0" width="24" height="24">
<path d="M24 6.10352e-05H0V24.0001H24V6.10352e-05Z" fill="white"/>
</mask>
<g mask="url(#mask0_611_2043)">
<path fill-rule="evenodd" clip-rule="evenodd" d="M15.3038 5.96713C15.8704 6.30055 16.381 6.72102 16.8168 7.21313C17.2436 7.69447 17.5857 8.24458 17.8288 8.84013C17.967 9.18157 18.0757 9.53419 18.1538 9.89413C18.3352 10.7027 18.3495 11.5398 18.1958 12.3541C18.1125 12.7942 17.9859 13.225 17.8178 13.6401L17.7968 13.6841C17.3655 14.5979 16.8353 15.4617 16.2158 16.2601C15.9088 16.6851 15.6048 17.1071 15.3478 17.5161C15.2673 17.6437 15.1532 17.7466 15.0182 17.8138C14.8831 17.881 14.7322 17.9098 14.5818 17.8971L9.73985 18.6171C9.54149 18.6441 9.34008 18.5982 9.17306 18.4878C9.00604 18.3775 8.88479 18.2102 8.83185 18.0171C8.70938 17.6651 8.55925 17.3234 8.38285 16.9951C8.23731 16.7139 8.06161 16.4493 7.85885 16.2061C7.60785 15.9201 7.35285 15.6281 7.10485 15.2921C6.82032 14.9114 6.57476 14.503 6.37185 14.0731C6.16088 13.6229 5.99701 13.1521 5.88285 12.6681C5.76846 12.1815 5.7124 11.683 5.71585 11.1831C5.71591 10.6623 5.78142 10.1436 5.91085 9.63913C6.05095 9.09931 6.25225 8.57726 6.51085 8.08313L6.54585 8.02213C6.87962 7.45408 7.30116 6.94242 7.79485 6.50613C8.28841 6.07524 8.85003 5.72921 9.45685 5.48213L9.50585 5.46413C9.95787 5.28429 10.4294 5.1581 10.9108 5.08813C11.4214 5.01666 11.9386 5.00491 12.4518 5.05313C12.9533 5.09878 13.4483 5.19938 13.9278 5.35313C14.4055 5.50599 14.8647 5.71159 15.2968 5.96613L15.3038 5.96713ZM14.6038 21.2971C14.339 21.7545 13.96 22.1352 13.5038 22.4021C13.1177 22.6271 12.6847 22.7596 12.2388 22.7891C11.7931 22.816 11.348 22.7283 10.9458 22.5341C10.656 22.3913 10.3948 22.1968 10.1748 21.9601L14.6178 21.2981L14.6038 21.2971ZM15.0268 18.8111V19.2061C15.0409 19.3962 15.0409 19.5871 15.0268 19.7771L14.9408 20.1971L9.55785 20.9971L9.46285 20.7811L9.25385 19.9201V19.6711L15.0148 18.8141L15.0268 18.8111ZM11.8828 1.86813C11.8863 1.69068 11.9594 1.52171 12.0865 1.39781C12.2136 1.27391 12.3844 1.20504 12.5618 1.20613H12.6088C12.7787 1.22126 12.9365 1.30009 13.0505 1.42679C13.1646 1.55349 13.2265 1.71866 13.2238 1.88913C13.2248 1.90078 13.2248 1.91248 13.2238 1.92413L13.1828 3.36713C13.1838 3.38245 13.1838 3.39781 13.1828 3.41313C13.1694 3.58368 13.0917 3.74277 12.9655 3.85823C12.8393 3.9737 12.6739 4.03692 12.5028 4.03513H12.4558C12.2853 4.0212 12.1264 3.94303 12.0113 3.81642C11.8962 3.68981 11.8335 3.52422 11.8358 3.35313C11.8349 3.34215 11.8349 3.33111 11.8358 3.32013L11.8748 1.87013L11.8828 1.86813ZM4.43985 4.39413C4.31212 4.27126 4.23767 4.10321 4.23248 3.92605C4.22729 3.7489 4.29178 3.57677 4.41209 3.44664C4.53241 3.31651 4.69895 3.23874 4.87597 3.23005C5.05299 3.22135 5.22635 3.28241 5.35885 3.40013L6.44085 4.40613C6.57083 4.52925 6.64761 4.69824 6.65485 4.87713C6.65896 4.96558 6.64553 5.05398 6.61532 5.13722C6.58512 5.22046 6.53873 5.2969 6.47885 5.36213C6.35679 5.49243 6.18826 5.56933 6.00985 5.57613C5.92195 5.58108 5.83394 5.56862 5.75088 5.53944C5.66781 5.51027 5.59134 5.46496 5.52585 5.40613L4.43985 4.39413ZM2.66885 11.8311C2.48876 11.8355 2.31432 11.7682 2.18389 11.6439C2.05346 11.5197 1.97772 11.3487 1.97335 11.1686C1.96897 10.9885 2.03631 10.8141 2.16055 10.6837C2.2848 10.5532 2.45576 10.4775 2.63585 10.4731L4.11285 10.4241C4.20183 10.4208 4.29059 10.4351 4.37402 10.4662C4.45746 10.4973 4.53391 10.5446 4.59897 10.6054C4.66404 10.6662 4.71643 10.7393 4.75314 10.8204C4.78985 10.9015 4.81014 10.9891 4.81285 11.0781V11.0891V11.1141C4.80958 11.2875 4.73974 11.4529 4.61779 11.5762C4.49585 11.6994 4.33115 11.771 4.15785 11.7761H4.13385L2.67585 11.8231L2.66885 11.8311ZM21.2918 9.73713H21.3058C21.4798 9.72718 21.6509 9.78458 21.7836 9.89741C21.9164 10.0102 22.0006 10.1699 22.0188 10.3431C22.0199 10.3508 22.0199 10.3585 22.0188 10.3661C22.0296 10.5393 21.9733 10.71 21.8616 10.8428C21.7499 10.9755 21.5913 11.0602 21.4188 11.0791L19.9478 11.2351C19.7723 11.2488 19.5984 11.1934 19.4631 11.0808C19.3278 10.9682 19.2417 10.8073 19.2232 10.6322C19.2047 10.4571 19.2552 10.2817 19.3641 10.1433C19.4729 10.005 19.6314 9.91447 19.8058 9.89113C20.2958 9.83713 20.7898 9.78013 21.2818 9.73313L21.2918 9.73713ZM18.3768 3.85713C18.4255 3.78301 18.4884 3.71924 18.5618 3.66949C18.6352 3.61975 18.7178 3.585 18.8046 3.56725C18.8915 3.5495 18.9811 3.5491 19.0681 3.56607C19.1552 3.58304 19.238 3.61704 19.3118 3.66613C19.3861 3.71457 19.4497 3.77756 19.4988 3.8513C19.548 3.92504 19.5817 4.00799 19.5978 4.09513C19.6328 4.27038 19.5968 4.45235 19.4978 4.60113L18.6758 5.83113C18.6282 5.90744 18.5657 5.97335 18.492 6.0249C18.4182 6.07645 18.3349 6.11258 18.2468 6.13113C18.0716 6.16532 17.8899 6.12942 17.7408 6.03113C17.5933 5.93138 17.49 5.77834 17.4528 5.60413C17.4179 5.42887 17.4538 5.24691 17.5528 5.09813L18.3768 3.86813V3.85713ZM8.69685 15.4141C8.18521 14.8784 7.75678 14.2689 7.42585 13.6061C7.06735 12.8619 6.88172 12.0462 6.88285 11.2201C6.90061 10.3333 7.12997 9.46345 7.55185 8.68313C7.55556 8.67752 7.55859 8.67147 7.56085 8.66513C8.09474 7.73727 8.9217 7.01303 9.91185 6.60613C10.6875 6.29447 11.5268 6.17408 12.3588 6.25513C13.1836 6.32941 13.9818 6.58445 14.6968 7.00213C15.6129 7.53038 16.3297 8.34525 16.7368 9.32113C16.9956 9.94026 17.1288 10.6046 17.1288 11.2756C17.1288 11.9466 16.9956 12.611 16.7368 13.2301C16.0724 14.453 15.3152 15.6231 14.4718 16.7301C14.4329 16.7221 14.3928 16.7221 14.3538 16.7301L9.77185 17.4061C9.54017 16.6784 9.17494 16.0001 8.69485 15.4061L8.69685 15.4141Z" fill="#253844"/>
</g>
</g>
<defs>
<clipPath id="clip0_611_2043">
<rect width="24" height="24" fill="white"/>
</clipPath>
</defs>
</svg>
