<svg width="16" height="17" viewBox="0 0 16 17" fill="none" xmlns="http://www.w3.org/2000/svg">
<path d="M11.3945 1.81104C11.6707 1.81104 11.8945 2.03489 11.8945 2.31104V3.16943H12.4502C13.8307 3.16964 14.9502 4.28885 14.9502 5.66943V12.689C14.9502 14.0695 13.8307 15.1888 12.4502 15.189H3.5498C2.16909 15.189 1.0498 14.0697 1.0498 12.689V5.66943C1.0498 4.28872 2.16909 3.16943 3.5498 3.16943H3.76562V2.31104C3.76562 2.03489 3.98948 1.81104 4.26562 1.81104C4.54177 1.81104 4.76562 2.03489 4.76562 2.31104V3.16943H10.8945V2.31104C10.8945 2.03489 11.1184 1.81104 11.3945 1.81104ZM2.0498 12.689C2.0498 13.5174 2.72138 14.189 3.5498 14.189H12.4502C13.2784 14.1888 13.9502 13.5173 13.9502 12.689V6.51904L2.0498 6.50049V12.689ZM3.5498 4.16943C2.77836 4.16943 2.14334 4.75141 2.05957 5.50049L13.9424 5.51904C13.8672 4.76115 13.2278 4.16963 12.4502 4.16943H3.5498Z" fill="black" fill-opacity="0.6"/>
<path d="M11.3951 12.674C11.869 12.674 12.2531 12.2899 12.2531 11.816C12.2531 11.3421 11.869 10.958 11.3951 10.958C10.9212 10.958 10.5371 11.3421 10.5371 11.816C10.5371 12.2899 10.9212 12.674 11.3951 12.674Z" stroke="black" stroke-opacity="0.6"/>
</svg>
