<svg width="24" height="24" viewBox="0 0 24 24" fill="none" xmlns="http://www.w3.org/2000/svg">
<g clip-path="url(#clip0_64_4323)">
<path d="M4.749 20C4.01992 20 3.3207 19.7104 2.80516 19.1948C2.28963 18.6793 2 17.9801 2 17.251V7.751C2 7.02174 2.28956 6.32231 2.80504 5.80646C3.32052 5.2906 4.01974 5.00053 4.749 5H19.249C19.6103 4.99987 19.9681 5.07094 20.3019 5.20914C20.6357 5.34734 20.9391 5.54998 21.1945 5.80546C21.45 6.06094 21.6527 6.36426 21.7909 6.69808C21.9291 7.03191 22.0001 7.3897 22 7.751V17.251C22.0001 17.612 21.9291 17.9696 21.791 18.3032C21.6529 18.6367 21.4504 18.9398 21.1951 19.1951C20.9398 19.4504 20.6367 19.6529 20.3032 19.791C19.9696 19.9291 19.612 20.0001 19.251 20H4.749ZM3.5 17.251C3.50079 17.582 3.63264 17.8992 3.8667 18.1333C4.10076 18.3674 4.41799 18.4992 4.749 18.5H19.249C19.5802 18.4992 19.8976 18.3672 20.1317 18.1329C20.3657 17.8987 20.4975 17.5812 20.498 17.25V10.75H3.5V17.251ZM20.5 9.251V7.751C20.4997 7.41964 20.3681 7.1019 20.134 6.86741C19.8999 6.63291 19.5824 6.50079 19.251 6.5H4.749C4.41764 6.50079 4.10011 6.63291 3.86599 6.86741C3.63188 7.1019 3.50026 7.41964 3.5 7.751V9.251H20.5Z" fill="#253844" stroke="white" stroke-width="0.3"/>
<path d="M7.99902 16.746H5.99902C5.80011 16.746 5.60935 16.667 5.46869 16.5263C5.32804 16.3856 5.24902 16.1949 5.24902 15.996C5.24902 15.7971 5.32804 15.6063 5.46869 15.4656C5.60935 15.325 5.80011 15.246 5.99902 15.246H7.99902C8.19794 15.246 8.3887 15.325 8.52935 15.4656C8.67001 15.6063 8.74902 15.7971 8.74902 15.996C8.74902 16.1949 8.67001 16.3856 8.52935 16.5263C8.3887 16.667 8.19794 16.746 7.99902 16.746Z" fill="#253844" stroke="white" stroke-width="0.4" stroke-linecap="round"/>
</g>
<defs>
<clipPath id="clip0_64_4323">
<rect width="24" height="24" fill="white"/>
</clipPath>
</defs>
</svg>
