<svg width="24" height="24" viewBox="0 0 24 24" fill="none" xmlns="http://www.w3.org/2000/svg">
<g clip-path="url(#clip0_64_4333)">
<path d="M15.8188 4.47485C16.1295 4.47485 16.3813 4.72669 16.3813 5.03735V6.0022H17.0063C18.5594 6.0023 19.8186 7.26163 19.8188 8.8147V16.7122C19.8188 18.2654 18.5596 19.5246 17.0063 19.5247H6.99365C5.44035 19.5247 4.18115 18.2655 4.18115 16.7122V8.8147C4.18135 7.26157 5.44048 6.0022 6.99365 6.0022H7.23682V5.03735C7.23682 4.72669 7.48866 4.47485 7.79932 4.47485C8.10981 4.47505 8.36182 4.72682 8.36182 5.03735V6.0022H15.2563V5.03735C15.2563 4.72673 15.5082 4.47492 15.8188 4.47485ZM5.30615 16.7122C5.30615 17.6441 6.06167 18.3997 6.99365 18.3997H17.0063C17.9382 18.3996 18.6938 17.6441 18.6938 16.7122V9.77173L5.30615 9.75024V16.7122ZM6.99365 7.1272C6.12585 7.1272 5.41123 7.78263 5.31689 8.62524L18.6851 8.64673C18.6006 7.79386 17.8814 7.1273 17.0063 7.1272H6.99365Z" fill="#253844"/>
<path d="M17 23C20.3137 23 23 20.3137 23 17C23 13.6863 20.3137 11 17 11C13.6863 11 11 13.6863 11 17C11 20.3137 13.6863 23 17 23Z" fill="white"/>
<path d="M17 21C19.2091 21 21 19.2091 21 17C21 14.7909 19.2091 13 17 13C14.7909 13 13 14.7909 13 17C13 19.2091 14.7909 21 17 21Z" fill="white" stroke="#253844"/>
<path d="M17 15V15.9V16.8L18 18" stroke="#253844" stroke-linecap="round" stroke-linejoin="round"/>
</g>
<defs>
<clipPath id="clip0_64_4333">
<rect width="24" height="24" fill="white"/>
</clipPath>
</defs>
</svg>
