<svg width="24" height="24" viewBox="0 0 24 24" fill="none" xmlns="http://www.w3.org/2000/svg">
<path d="M20.3341 4.75096H19.0741C15.6351 4.75096 18.1841 4.71997 13.9741 4.74297L3.64609 4.73096C3.20448 4.73702 2.78328 4.91788 2.47476 5.2339C2.16624 5.54992 1.99555 5.97534 2.00009 6.41696V17.602C2.00088 18.0436 2.17666 18.4669 2.48892 18.7791C2.80119 19.0914 3.22448 19.2672 3.66609 19.268H20.3341C20.7757 19.2672 21.199 19.0914 21.5113 18.7791C21.8235 18.4669 21.9993 18.0436 22.0001 17.602V6.41696C21.9993 5.97535 21.8235 5.55206 21.5113 5.23979C21.199 4.92753 20.7757 4.75175 20.3341 4.75096ZM20.8891 17.603C20.8891 17.7502 20.8306 17.8913 20.7265 17.9954C20.6225 18.0995 20.4813 18.158 20.3341 18.158H3.66609C3.51889 18.158 3.37773 18.0995 3.27364 17.9954C3.16956 17.8913 3.11109 17.7502 3.11109 17.603V6.41696C3.10596 6.26965 3.15954 6.12632 3.26005 6.01849C3.36056 5.91067 3.49977 5.84718 3.64709 5.84196L12.8631 5.85396C14.1961 5.84896 14.0471 5.86297 17.9631 5.86197H20.3341C20.4813 5.86197 20.6225 5.92044 20.7265 6.02452C20.8306 6.1286 20.8891 6.26977 20.8891 6.41696V17.599V17.603Z" fill="#253844" stroke="#253844" stroke-width="0.1"/>
<path d="M10.7493 13.75L9.29032 12.294C9.21247 12.2185 9.10806 12.1767 8.99964 12.1776C8.89122 12.1784 8.78748 12.2218 8.71081 12.2985C8.63414 12.3752 8.5907 12.4789 8.58986 12.5873C8.58902 12.6958 8.63085 12.8002 8.70632 12.878L10.4523 14.624C10.4909 14.6627 10.5367 14.6934 10.5871 14.7144C10.6376 14.7353 10.6917 14.7461 10.7463 14.7461C10.8009 14.7461 10.855 14.7353 10.9055 14.7144C10.9559 14.6934 11.0018 14.6627 11.0403 14.624L15.4583 10.21C15.4976 10.1719 15.529 10.1263 15.5505 10.076C15.5721 10.0256 15.5834 9.97146 15.5838 9.91669C15.5843 9.86192 15.5738 9.80761 15.553 9.75692C15.5323 9.70623 15.5016 9.66018 15.4629 9.62145C15.4241 9.58272 15.3781 9.55208 15.3274 9.53132C15.2767 9.51055 15.2224 9.50008 15.1676 9.5005C15.1129 9.50093 15.0587 9.51224 15.0084 9.53379C14.958 9.55534 14.9124 9.58669 14.8743 9.62602L10.7493 13.75Z" fill="#253844" stroke="#253844" stroke-width="0.5"/>
</svg>
