<svg width="24" height="25" viewBox="0 0 24 25" fill="none" xmlns="http://www.w3.org/2000/svg">
<g clip-path="url(#clip0_15_11018)">
<path d="M20.3341 5.25096H19.0741C15.6351 5.25096 18.1841 5.21997 13.9741 5.24297L3.64609 5.23096C3.20448 5.23702 2.78328 5.41788 2.47476 5.7339C2.16624 6.04992 1.99555 6.47534 2.00009 6.91696V18.102C2.00088 18.5436 2.17666 18.9669 2.48892 19.2791C2.80119 19.5914 3.22448 19.7672 3.66609 19.768H20.3341C20.7757 19.7672 21.199 19.5914 21.5113 19.2791C21.8235 18.9669 21.9993 18.5436 22.0001 18.102V6.91696C21.9993 6.47535 21.8235 6.05206 21.5113 5.73979C21.199 5.42753 20.7757 5.25175 20.3341 5.25096ZM20.8891 18.103C20.8891 18.2502 20.8306 18.3913 20.7265 18.4954C20.6225 18.5995 20.4813 18.658 20.3341 18.658H3.66609C3.51889 18.658 3.37773 18.5995 3.27364 18.4954C3.16956 18.3913 3.11109 18.2502 3.11109 18.103V6.91696C3.10596 6.76965 3.15954 6.62632 3.26005 6.51849C3.36056 6.41067 3.49977 6.34718 3.64709 6.34196L12.8631 6.35396C14.1961 6.34896 14.0471 6.36297 17.9631 6.36197H20.3341C20.4813 6.36197 20.6225 6.42044 20.7265 6.52452C20.8306 6.6286 20.8891 6.76977 20.8891 6.91696V18.099V18.103Z" fill="#253844" stroke="#253844" stroke-width="0.1"/>
<path d="M4.68021 10.0289H8.90821C9.05779 10.0289 9.20125 9.96946 9.30702 9.86369C9.41279 9.75792 9.47221 9.61447 9.47221 9.46489C9.47221 9.31531 9.41279 9.17184 9.30702 9.06607C9.20125 8.9603 9.05779 8.90088 8.90821 8.90088H4.68021C4.53063 8.90088 4.38717 8.9603 4.2814 9.06607C4.17563 9.17184 4.11621 9.31531 4.11621 9.46489C4.11621 9.61447 4.17563 9.75792 4.2814 9.86369C4.38717 9.96946 4.53063 10.0289 4.68021 10.0289Z" fill="#253844" stroke="#253844" stroke-width="0.1"/>
<path d="M4.68021 13.4268H14.8532C15.0028 13.4268 15.1463 13.3674 15.252 13.2616C15.3578 13.1559 15.4172 13.0124 15.4172 12.8628C15.4172 12.7132 15.3578 12.5698 15.252 12.464C15.1463 12.3582 15.0028 12.2988 14.8532 12.2988H4.68021C4.53063 12.2988 4.38717 12.3582 4.2814 12.464C4.17563 12.5698 4.11621 12.7132 4.11621 12.8628C4.11621 13.0124 4.17563 13.1559 4.2814 13.2616C4.38717 13.3674 4.53063 13.4268 4.68021 13.4268Z" fill="#253844" stroke="#253844" stroke-width="0.1"/>
<path d="M19.1683 15.69L17.7083 15.206C17.6115 15.1742 17.5079 15.1693 17.4086 15.1919C17.3093 15.2144 17.2179 15.2635 17.1443 15.3339L16.5803 15.866L16.2323 15.402C16.1846 15.3383 16.1239 15.2854 16.0543 15.2468C15.9847 15.2081 15.9077 15.1846 15.8284 15.1778C15.7491 15.171 15.6693 15.1811 15.5941 15.2073C15.519 15.2335 15.4502 15.2753 15.3923 15.3299L14.3723 16.298C14.3187 16.3489 14.2757 16.4099 14.2457 16.4775C14.2157 16.5451 14.1993 16.6179 14.1974 16.6918C14.1956 16.7657 14.2083 16.8393 14.2349 16.9083C14.2615 16.9773 14.3014 17.0404 14.3523 17.094C14.4033 17.1475 14.4643 17.1906 14.5319 17.2206C14.5994 17.2506 14.6723 17.267 14.7462 17.2688C14.8201 17.2707 14.8936 17.2579 14.9626 17.2314C15.0316 17.2048 15.0947 17.1649 15.1483 17.1139L15.7123 16.582L16.0603 17.0459C16.1136 17.1152 16.182 17.1715 16.2604 17.2103C16.3387 17.2491 16.4249 17.2695 16.5123 17.2699C16.6569 17.2698 16.7959 17.2139 16.9003 17.1139L17.6763 16.3779L18.8123 16.754C18.8823 16.7779 18.9564 16.7877 19.0302 16.7829C19.104 16.7781 19.1761 16.7588 19.2424 16.726C19.3087 16.6932 19.3679 16.6476 19.4165 16.5918C19.4651 16.5361 19.5023 16.4713 19.5258 16.4011C19.5492 16.331 19.5586 16.2569 19.5533 16.1831C19.548 16.1093 19.5282 16.0373 19.495 15.9712C19.4618 15.9051 19.4158 15.8462 19.3597 15.7979C19.3037 15.7497 19.2386 15.713 19.1683 15.69Z" fill="#253844" stroke="#253844" stroke-width="0.1"/>
</g>
<defs>
<clipPath id="clip0_15_11018">
<rect width="24" height="24" fill="white" transform="translate(0 0.5)"/>
</clipPath>
</defs>
</svg>
