<svg width="24" height="24" viewBox="0 0 24 24" fill="none" xmlns="http://www.w3.org/2000/svg">
<path d="M19.62 18.1753C20.6162 18.1753 21.4238 17.3677 21.4238 16.3715V5.93089C21.4238 4.86655 20.5623 4.00378 19.4996 4.00378H4.70645C3.64375 4.00378 2.78223 4.86661 2.78223 5.93089V19.5921C2.78223 19.9256 3.16392 20.115 3.42947 19.9132L5.43405 18.3903C5.61767 18.2509 5.84188 18.1753 6.07248 18.1753H19.62Z" stroke="#253844" stroke-miterlimit="10" stroke-linecap="round"/>
<path d="M10.0239 8.73942C10.3764 8.13039 11.1239 7.71739 11.981 7.74361C13.0688 7.77691 13.9564 8.53201 13.9977 9.45947C14.0374 10.3514 13.31 11.1047 12.3332 11.2782C12.0853 11.3222 11.904 11.5031 11.904 11.719V12.3803" stroke="#253844" stroke-miterlimit="10" stroke-linecap="round"/>
<circle cx="12" cy="14.0001" r="0.5" fill="#253844"/>
</svg>
