<svg width="24" height="24" viewBox="0 0 24 24" fill="none" xmlns="http://www.w3.org/2000/svg">
<g clip-path="url(#clip0_64_4327)">
<path d="M12 14.7665C12.2091 14.7666 12.4097 14.85 12.5576 14.9979C12.7055 15.1459 12.789 15.3464 12.7891 15.5555V16.5458H19.1104C19.3195 16.5459 19.5201 16.6293 19.668 16.7772C19.8158 16.9251 19.8993 17.1257 19.8994 17.3348C19.8994 17.5442 19.816 17.7454 19.668 17.8934C19.5201 18.0413 19.3194 18.1238 19.1104 18.1239H12.7891V19.1122C12.7891 19.3213 12.7058 19.5207 12.5576 19.6688C12.4097 19.8167 12.2091 19.9001 12 19.9003C11.7907 19.9003 11.5894 19.8168 11.4414 19.6688C11.2934 19.5208 11.21 19.3195 11.21 19.1102V15.5555C11.21 15.3464 11.2936 15.1459 11.4414 14.9979C11.5894 14.8499 11.7907 14.7665 12 14.7665ZM8.44531 16.5458C8.88054 16.5458 9.2342 16.8987 9.23438 17.3339C9.23438 17.7692 8.88065 18.1219 8.44531 18.1219H4.88965C4.70696 18.1212 4.53069 18.0581 4.39062 17.9432L4.33301 17.8905C4.18556 17.7431 4.10178 17.5433 4.10059 17.3348C4.10138 17.1522 4.16548 16.9759 4.28027 16.8358L4.33301 16.7782C4.4622 16.649 4.63135 16.5683 4.81152 16.5497L4.88965 16.5458H8.44531ZM8.44434 9.43347C8.65355 9.43347 8.85495 9.51604 9.00293 9.66394C9.15093 9.81195 9.23438 10.0132 9.23438 10.2225V13.7772C9.23438 13.9865 9.15093 14.1878 9.00293 14.3358C8.85495 14.4837 8.65355 14.5663 8.44434 14.5663C8.2353 14.5662 8.03458 14.4836 7.88672 14.3358C7.73872 14.1878 7.65527 13.9865 7.65527 13.7772V12.7889H4.88867C4.70559 12.7888 4.52902 12.7253 4.38867 12.6102L4.33105 12.5575C4.18322 12.4095 4.09961 12.2091 4.09961 11.9999C4.09961 11.8169 4.16341 11.6403 4.27832 11.4999L4.33105 11.4423C4.47894 11.2944 4.67955 11.2109 4.88867 11.2108H7.65527V10.2225C7.65527 10.0132 7.73872 9.81195 7.88672 9.66394C8.03458 9.51616 8.2353 9.4336 8.44434 9.43347ZM12.002 11.2128H19.1113C19.3201 11.2137 19.5203 11.2966 19.668 11.4442C19.8156 11.5918 19.8994 11.7921 19.9004 12.0009L19.8955 12.079C19.8772 12.2593 19.798 12.429 19.6689 12.5585C19.5212 12.7066 19.3205 12.79 19.1113 12.7909H12.002C11.5661 12.7909 11.2119 12.4377 11.2119 12.0018C11.2119 11.566 11.5661 11.2128 12.002 11.2128ZM15.5557 4.09949C15.7388 4.09949 15.9162 4.16312 16.0566 4.2782L16.1143 4.33093C16.2623 4.47894 16.3457 4.68021 16.3457 4.88953V5.87781H19.1104C19.2935 5.87792 19.47 5.94133 19.6104 6.05652L19.668 6.10828C19.816 6.25628 19.8994 6.45756 19.8994 6.66687C19.8993 6.87602 19.8158 7.07657 19.668 7.22449C19.5201 7.37238 19.3195 7.45581 19.1104 7.45593H16.3438V8.44617C16.3427 8.65475 16.2588 8.85429 16.1113 9.00183C15.9636 9.14954 15.7636 9.23237 15.5547 9.23328C15.3461 9.23213 15.1465 9.14932 14.999 9.00183C14.8699 8.87261 14.7901 8.7035 14.7715 8.52332L14.7666 8.44519V4.88953C14.7666 4.70637 14.8302 4.52899 14.9453 4.38855L14.998 4.33093C15.1459 4.18305 15.3465 4.09962 15.5557 4.09949ZM12 5.87878C12.4353 5.87878 12.7891 6.23251 12.7891 6.66785C12.7889 7.10303 12.4352 7.45593 12 7.45593H4.88965C4.70689 7.45514 4.53072 7.39116 4.39062 7.27625L4.33301 7.22351C4.18555 7.07599 4.10169 6.87642 4.10059 6.66785C4.1014 6.48512 4.1654 6.3089 4.28027 6.16882L4.33301 6.11121C4.46218 5.98206 4.6314 5.9023 4.81152 5.88367L4.88965 5.87878H12Z" fill="#253844" stroke="white" stroke-width="0.2"/>
</g>
<defs>
<clipPath id="clip0_64_4327">
<rect width="20.5714" height="20.5714" fill="white" transform="translate(1.71436 1.71423)"/>
</clipPath>
</defs>
</svg>
