<svg width="12" height="12" viewBox="0 0 12 12" fill="none" xmlns="http://www.w3.org/2000/svg">
<g clip-path="url(#clip0_821_1786)">
<path d="M0.750636 9.50064C0.751306 9.65503 0.812931 9.8029 0.922096 9.91208C1.03126 10.0212 1.17913 10.0829 1.33351 10.0835H4.25042V8.91773H1.33351C1.17913 8.9184 1.03126 8.98003 0.922096 9.0892C0.812931 9.19837 0.751306 9.34624 0.750636 9.50064ZM0.750636 2.50064C0.751306 2.65503 0.812931 2.8029 0.922096 2.91208C1.03126 3.02125 1.17913 3.08288 1.33351 3.08355H6.58319V1.91773H1.33351C1.17913 1.9184 1.03126 1.98003 0.922096 2.0892C0.812931 2.19837 0.751306 2.34625 0.750636 2.50064ZM6.58319 10.6677V10.0848H10.6659C10.8206 10.0848 10.969 10.0233 11.0785 9.9139C11.1879 9.80446 11.2494 9.65604 11.2494 9.50127C11.2494 9.34651 11.1879 9.19808 11.0785 9.08864C10.969 8.97921 10.8206 8.91773 10.6659 8.91773H6.58319V8.33355C6.58319 8.17878 6.52172 8.03035 6.41229 7.92092C6.30286 7.81148 6.15444 7.75 5.99968 7.75C5.84493 7.75 5.69651 7.81148 5.58708 7.92092C5.47765 8.03035 5.41617 8.17878 5.41617 8.33355V10.6665C5.41617 10.8212 5.47765 10.9696 5.58708 11.0791C5.69651 11.1885 5.84493 11.25 5.99968 11.25C6.15444 11.25 6.30286 11.1885 6.41229 11.0791C6.52172 10.9696 6.58319 10.8225 6.58319 10.6677ZM3.0834 4.83355V5.41645H1.33351C1.17875 5.41645 1.03034 5.47793 0.920906 5.58737C0.811477 5.69681 0.75 5.84523 0.75 6C0.75 6.15477 0.811477 6.30319 0.920906 6.41263C1.03034 6.52206 1.17875 6.58355 1.33351 6.58355H3.0834V7.16645C3.0834 7.32122 3.14488 7.46965 3.25431 7.57908C3.36374 7.68852 3.51216 7.75 3.66691 7.75C3.82167 7.75 3.97009 7.68852 4.07952 7.57908C4.18895 7.46965 4.25042 7.32122 4.25042 7.16645V4.83355C4.25042 4.67878 4.18895 4.53035 4.07952 4.42092C3.97009 4.31148 3.82167 4.25 3.66691 4.25C3.51216 4.25 3.36374 4.31148 3.25431 4.42092C3.14488 4.53035 3.0834 4.67878 3.0834 4.83355ZM11.25 6.00064C11.2493 5.84625 11.1877 5.69837 11.0785 5.5892C10.9694 5.48003 10.8215 5.4184 10.6671 5.41773H5.41744V6.58482H10.6671C10.8217 6.58415 10.9698 6.52234 11.079 6.4129C11.1882 6.30345 11.2497 6.15525 11.25 6.00064ZM8.33309 4.25064C8.48747 4.24997 8.63534 4.18834 8.7445 4.07917C8.85367 3.96999 8.91529 3.82212 8.91596 3.66773V3.08355H10.6659C10.8206 3.08355 10.969 3.02206 11.0785 2.91263C11.1879 2.80319 11.2494 2.65477 11.2494 2.5C11.2494 2.34523 11.1879 2.19681 11.0785 2.08737C10.969 1.97793 10.8206 1.91645 10.6659 1.91645H8.91723V1.33355C8.91723 1.17878 8.85576 1.03035 8.74633 0.920916C8.6369 0.81148 8.48848 0.75 8.33372 0.75C8.17897 0.75 8.03055 0.81148 7.92112 0.920916C7.81169 1.03035 7.75021 1.17878 7.75021 1.33355V3.66773C7.75088 3.82212 7.81251 3.96999 7.92167 4.07917C8.03084 4.18834 8.1787 4.24997 8.33309 4.25064Z" fill="black" fill-opacity="0.6"/>
</g>
<defs>
<clipPath id="clip0_821_1786">
<rect width="12" height="12" fill="white"/>
</clipPath>
</defs>
</svg>
