<svg width="32" height="32" viewBox="0 0 32 32" fill="none" xmlns="http://www.w3.org/2000/svg">
<circle cx="16" cy="16" r="15.5" fill="#F0EFEF" stroke="#E3E3E3"/>
<path d="M21.7 21.799H10.1C9.54305 21.799 9.0089 21.5778 8.61508 21.1839C8.22125 20.7901 8 20.256 8 19.699V12.099C8 11.5421 8.22125 11.0079 8.61508 10.6141C9.0089 10.2203 9.54305 9.99902 10.1 9.99902H21.7C22.257 9.99902 22.7911 10.2203 23.1849 10.6141C23.5788 11.0079 23.8 11.5421 23.8 12.099V19.699C23.8 20.256 23.5788 20.7901 23.1849 21.1839C22.7911 21.5778 22.257 21.799 21.7 21.799ZM9 14.399V19.699C9 19.9908 9.11589 20.2706 9.32218 20.4768C9.52847 20.6831 9.80826 20.799 10.1 20.799H21.7C21.9917 20.799 22.2715 20.6831 22.4778 20.4768C22.6841 20.2706 22.8 19.9908 22.8 19.699V14.399H9ZM10.1 10.999C9.80826 10.999 9.52847 11.1149 9.32218 11.3212C9.11589 11.5275 9 11.8073 9 12.099V13.399H22.8V12.099C22.8 11.8073 22.6841 11.5275 22.4778 11.3212C22.2715 11.1149 21.9917 10.999 21.7 10.999H10.1Z" fill="#253844"/>
<path d="M12.6996 19.1938H11.0996C10.967 19.1938 10.8398 19.1412 10.7461 19.0474C10.6523 18.9536 10.5996 18.8265 10.5996 18.6938C10.5996 18.5612 10.6523 18.4341 10.7461 18.3403C10.8398 18.2465 10.967 18.1938 11.0996 18.1938H12.6996C12.8322 18.1938 12.9594 18.2465 13.0532 18.3403C13.1469 18.4341 13.1996 18.5612 13.1996 18.6938C13.1996 18.8265 13.1469 18.9536 13.0532 19.0474C12.9594 19.1412 12.8322 19.1938 12.6996 19.1938Z" fill="#253844"/>
</svg>
