<svg width="24" height="24" viewBox="0 0 24 24" fill="none" xmlns="http://www.w3.org/2000/svg">
<path d="M22.2715 5.54103V18.894C22.2722 19.0957 22.2315 19.2954 22.152 19.4808C22.0726 19.6662 21.956 19.8333 21.8095 19.972C21.6709 20.1185 21.5037 20.2351 21.3183 20.3145C21.1329 20.394 20.9332 20.4347 20.7315 20.434H3.26953C3.06783 20.4347 2.86813 20.394 2.68274 20.3145C2.49735 20.2351 2.33018 20.1185 2.19152 19.972C2.04473 19.8333 1.92792 19.6661 1.84828 19.4805C1.76865 19.2949 1.72789 19.095 1.72853 18.893V5.53999C1.72777 5.33812 1.76837 5.13829 1.84783 4.95271C1.92729 4.76714 2.04391 4.59978 2.19052 4.46101C2.32938 4.31458 2.49675 4.19813 2.68232 4.11885C2.86789 4.03957 3.06773 3.99912 3.26953 4.00001H20.7285C20.9302 3.99939 21.1299 4.04007 21.3153 4.11952C21.5007 4.19898 21.6679 4.3155 21.8065 4.46199C21.9537 4.6005 22.0709 4.76774 22.1509 4.95332C22.2308 5.13891 22.2719 5.33894 22.2715 5.54103ZM3.27153 8.34102H20.7285V5.54103H3.26953L3.27153 8.34102ZM3.27153 11.654V18.895H20.7285V11.654H3.27153Z" fill="black" fill-opacity="0.6"/>
</svg>
