<svg width="24" height="24" viewBox="0 0 24 24" fill="none" xmlns="http://www.w3.org/2000/svg">
<path d="M11.5071 11.7712C11.8122 12.0763 12.3069 12.0763 12.612 11.7712C12.9171 11.4661 12.9171 10.9714 12.612 10.6663C12.3069 10.3612 11.8122 10.3612 11.5071 10.6663C11.2021 10.9714 11.2021 11.4661 11.5071 11.7712Z" fill="#253844"/>
<path d="M13.5 19H6.71186C5.21414 19 4 17.5673 4 15.8V6.2C4 4.43268 5.21414 3 6.71186 3H17.2881C18.7859 3 20 4.43268 20 6.2V13.5" stroke="#253844" stroke-width="1.2" stroke-miterlimit="10" stroke-linecap="round" stroke-linejoin="round"/>
<path d="M7 20.5938V19.0312" stroke="#253844" stroke-width="1.2" stroke-miterlimit="10" stroke-linecap="round" stroke-linejoin="round"/>
<path d="M15.1846 11.2188C15.1846 12.9446 13.7855 14.3438 12.0596 14.3438C10.3337 14.3438 8.93457 12.9446 8.93457 11.2188C8.93457 9.49285 10.3337 8.09375 12.0596 8.09375C13.7855 8.09375 15.1846 9.49285 15.1846 11.2188Z" stroke="#253844" stroke-width="1.2" stroke-miterlimit="10" stroke-linecap="round" stroke-linejoin="round"/>
<path d="M12.0596 6.53125V8.09375" stroke="#253844" stroke-width="1.2" stroke-miterlimit="10" stroke-linecap="round" stroke-linejoin="round"/>
<path d="M12.0596 14.3438V15.9062" stroke="#253844" stroke-width="1.2" stroke-miterlimit="10" stroke-linecap="round" stroke-linejoin="round"/>
<path d="M8 8.875L9.35316 9.65625" stroke="#253844" stroke-width="1.2" stroke-miterlimit="10" stroke-linecap="round" stroke-linejoin="round"/>
<path d="M15.269 12.7812L16.6222 13.5625" stroke="#253844" stroke-width="1.2" stroke-miterlimit="10" stroke-linecap="round" stroke-linejoin="round"/>
<path d="M8 13.5625L9.35316 12.7812" stroke="#253844" stroke-width="1.2" stroke-miterlimit="10" stroke-linecap="round" stroke-linejoin="round"/>
<path d="M14.7656 9.65625L16.1188 8.875" stroke="#253844" stroke-width="1.2" stroke-miterlimit="10" stroke-linecap="round" stroke-linejoin="round"/>
<path d="M16 18.5026H21" stroke="#253844" stroke-width="1.2" stroke-miterlimit="10" stroke-linecap="round" stroke-linejoin="round"/>
<path d="M18.4971 21V16" stroke="#253844" stroke-width="1.2" stroke-miterlimit="10" stroke-linecap="round" stroke-linejoin="round"/>
</svg>
