<svg width="12" height="12" viewBox="0 0 12 12" fill="none" xmlns="http://www.w3.org/2000/svg">
<g clip-path="url(#clip0_88_4478)">
<path d="M2.46765 4.29974C2.41878 4.34851 2.38003 4.40645 2.35358 4.47021C2.32712 4.53398 2.31348 4.60232 2.31348 4.67136C2.31348 4.74039 2.32712 4.80873 2.35358 4.8725C2.38003 4.93627 2.41878 4.9942 2.46765 5.04297L5.27713 7.84274C5.37465 7.94037 5.49042 8.01778 5.61789 8.07062C5.74536 8.12346 5.882 8.15063 6.01999 8.15063C6.15798 8.15063 6.29462 8.12346 6.42209 8.07062C6.54956 8.01778 6.66533 7.94037 6.76285 7.84274L9.57764 5.01898C9.62644 4.97018 9.66512 4.91227 9.69153 4.84851C9.71794 4.78475 9.73154 4.71639 9.73154 4.64737C9.73154 4.57835 9.71794 4.50999 9.69153 4.44623C9.66512 4.38246 9.62644 4.32456 9.57764 4.27576C9.52883 4.22695 9.47093 4.18819 9.40717 4.16177C9.3434 4.13536 9.27504 4.12177 9.20602 4.12177C9.13701 4.12177 9.06865 4.13536 9.00488 4.16177C8.94112 4.18819 8.88321 4.22695 8.83441 4.27576L6.25061 6.86771C6.2203 6.89809 6.18432 6.92221 6.14468 6.93866C6.10504 6.95511 6.06254 6.96356 6.01962 6.96356C5.97671 6.96356 5.9342 6.95511 5.89456 6.93866C5.85492 6.92221 5.81894 6.89809 5.78864 6.86771L3.2041 4.29901C3.1058 4.20247 2.97348 4.14836 2.83569 4.1485C2.69791 4.14864 2.56576 4.203 2.46765 4.29974Z" fill="black" fill-opacity="0.6"/>
</g>
<defs>
<clipPath id="clip0_88_4478">
<rect width="12" height="12" fill="white"/>
</clipPath>
</defs>
</svg>
