<svg width="32" height="32" viewBox="0 0 32 32" fill="none" xmlns="http://www.w3.org/2000/svg">
<circle cx="16" cy="16" r="15.5" fill="#F0EFEF" stroke="#E3E3E3"/>
<path d="M11.0339 15.0229V23.3657L13.055 24.7486L15.3007 23.6343L17.2376 25L19.5098 23.6343L21.4145 25L23.6153 23.4914V9.07429C23.6153 8.80189 23.5626 8.53215 23.4602 8.28049C23.3578 8.02883 23.2076 7.80016 23.0184 7.60754C22.8292 7.41493 22.6045 7.26214 22.3572 7.1579C22.11 7.05365 21.845 7 21.5774 7H9.57422" stroke="#253844" stroke-linecap="round" stroke-linejoin="round"/>
<path d="M9.45708 7C9.87548 7 10.2767 7.16917 10.5726 7.4703C10.8685 7.77143 11.0347 8.17985 11.0347 8.60571V15.72H10.4227C9.88222 15.72 9.36386 15.5015 8.98167 15.1125C8.59948 14.7235 8.38477 14.1958 8.38477 13.6457V8.09143C8.38477 7.80196 8.49774 7.52435 8.69884 7.31967C8.89993 7.11499 9.17268 7 9.45708 7Z" stroke="#253844" stroke-linecap="round" stroke-linejoin="round"/>
<path d="M14.9611 15.4246C14.8518 15.5138 14.7883 15.6368 14.7835 15.7667C14.7787 15.8966 14.8336 16.0229 14.9361 16.1179L17.9902 18.8998C18.0923 18.9936 18.2337 19.0485 18.3824 19.0526C18.5312 19.0568 18.6751 19.0098 18.7838 18.9219C18.8925 18.8333 18.9569 18.7112 18.9624 18.5821C18.9678 18.453 18.9143 18.3272 18.8134 18.2319L16.6676 16.2735H16.8461C17.5115 16.2732 18.153 16.0585 18.6451 15.6711C19.1372 15.2836 19.4452 14.7514 19.5081 14.1783H19.8235C19.9662 14.1684 20.0993 14.1123 20.1962 14.0211C20.2931 13.93 20.3465 13.8105 20.3461 13.6867C20.3446 13.5571 20.2841 13.4333 20.1777 13.3422C20.0713 13.251 19.927 13.1999 19.7772 13.1999H19.3693C19.2875 12.9904 19.1708 12.7923 19.0234 12.6116H19.7735C19.9151 12.6064 20.0494 12.5557 20.15 12.4693C20.2506 12.3828 20.3104 12.2671 20.3174 12.1446C20.3228 12.0148 20.2685 11.8885 20.1666 11.7932C20.0648 11.6979 19.9234 11.6413 19.7735 11.6357H15.3523C15.2104 11.6419 15.0763 11.6934 14.9759 11.7803C14.8754 11.8672 14.8165 11.9833 14.8094 12.1061C14.805 12.2352 14.8593 12.3607 14.9611 12.4554C15.0628 12.55 15.2031 12.606 15.3523 12.6116H16.8443C17.0949 12.6121 17.3423 12.6653 17.5639 12.7666C17.7854 12.868 17.9744 13.0145 18.116 13.1934H15.3274C15.2532 13.1959 15.1802 13.2109 15.1128 13.2379C15.0454 13.2648 14.9845 13.3031 14.9343 13.3504C14.8841 13.3977 14.8458 13.4531 14.8205 13.5135C14.7952 13.5739 14.7836 13.6381 14.7872 13.7023C14.7946 13.8314 14.8602 13.9527 14.9703 14.0402C15.0804 14.1276 15.2261 14.174 15.3755 14.1693H18.3593C18.3011 14.481 18.1161 14.7648 17.8386 14.9698C17.561 15.1748 17.2083 15.2878 16.8433 15.2887H15.3514C15.206 15.2877 15.065 15.3365 14.9611 15.4246Z" fill="#253844"/>
</svg>
