<svg width="24" height="24" viewBox="0 0 24 24" fill="none" xmlns="http://www.w3.org/2000/svg">
<g clip-path="url(#clip0_15_4569)">
<path d="M18.6056 21.1288H16.4056C15.676 21.1278 14.9767 20.8375 14.4608 20.3217C13.9449 19.8058 13.6547 19.1064 13.6536 18.3768V15.0768C13.6534 14.9309 13.5952 14.791 13.4919 14.6879C13.3886 14.5847 13.2486 14.5269 13.1026 14.5269H10.9026C10.7568 14.5271 10.6171 14.5851 10.514 14.6882C10.4109 14.7913 10.3529 14.9311 10.3526 15.0768V18.3768C10.3515 19.1066 10.0611 19.8061 9.54504 20.322C9.02896 20.8379 8.32933 21.1281 7.59961 21.1288H5.3996C4.66883 21.1294 3.96776 20.8397 3.45056 20.3234C2.93337 19.8072 2.6424 19.1066 2.6416 18.3759V10.1259C2.6413 9.67761 2.75047 9.23607 2.9596 8.8396C3.16872 8.44313 3.4715 8.10375 3.84161 7.85089L10.4486 3.35089C10.9048 3.03774 11.4452 2.87012 11.9986 2.87012C12.552 2.87012 13.0923 3.03774 13.5486 3.35089L20.1486 7.85089C20.5189 8.10363 20.8217 8.44298 21.0308 8.83948C21.24 9.23598 21.349 9.67758 21.3486 10.1259V18.3759C21.3478 19.104 21.0589 19.8023 20.5449 20.3181C20.031 20.8339 19.3338 21.1254 18.6056 21.1288Z" stroke="black" stroke-opacity="0.6" stroke-width="2" stroke-miterlimit="10"/>
</g>
<defs>
<clipPath id="clip0_15_4569">
<rect width="24" height="24" fill="white"/>
</clipPath>
</defs>
</svg>
