<svg width="32" height="32" viewBox="0 0 32 32" fill="none" xmlns="http://www.w3.org/2000/svg">
<circle cx="16" cy="16" r="15.5" fill="#F0EFEF" stroke="#E3E3E3"/>
<path d="M10.2329 22.5991C9.54654 21.8 9.19732 20.7657 9.25891 19.7141C9.25891 16.5451 11.4189 13.4291 12.7049 11.8541C12.7311 11.8221 12.7643 11.7964 12.8019 11.7791C12.8395 11.7618 12.8805 11.7532 12.9219 11.7541H19.0859C19.1294 11.7537 19.1724 11.7631 19.2119 11.7814C19.2513 11.7997 19.2862 11.8266 19.3139 11.8601C22.1519 15.3691 22.7419 18.0601 22.7379 19.7131C22.8034 20.7654 22.4561 21.8018 21.7697 22.6021C21.0833 23.4024 20.1119 23.9035 19.0619 23.9991H12.9389C11.8894 23.9013 10.919 23.3992 10.2329 22.5991ZM13.3329 11.6641C13.2887 11.6633 13.2454 11.6509 13.2075 11.628C13.1696 11.6052 13.1383 11.5728 13.1169 11.5341L11.7929 8.88808C11.7361 8.77319 11.7168 8.6434 11.7376 8.51694C11.7584 8.39048 11.8183 8.27372 11.9089 8.18308C11.9651 8.1247 12.0325 8.0783 12.1071 8.04668C12.1817 8.01505 12.2619 7.99886 12.3429 7.99908C12.4225 7.99849 12.5014 8.01375 12.5751 8.04397C12.6488 8.07418 12.7157 8.11875 12.7719 8.17508C13.1854 8.46112 13.6762 8.61435 14.1789 8.61435C14.6817 8.61435 15.1725 8.46112 15.5859 8.17508C15.7006 8.06077 15.856 7.99658 16.0179 7.99658C16.1799 7.99658 16.3352 8.06077 16.4499 8.17508C16.8618 8.45967 17.3505 8.61227 17.8511 8.61263C18.3517 8.61298 18.8406 8.46108 19.2529 8.17708C19.3435 8.0946 19.4564 8.04058 19.5775 8.02173C19.6986 8.00289 19.8225 8.02005 19.9339 8.07108C20.0809 8.14025 20.1944 8.26493 20.2496 8.41775C20.3047 8.57056 20.2969 8.73901 20.2279 8.88608L18.9049 11.5431C18.8834 11.5811 18.8526 11.613 18.8153 11.6358C18.778 11.6585 18.7356 11.6714 18.6919 11.6731L13.3329 11.6641Z" stroke="#253844"/>
<path d="M17.5574 17.8999C17.3201 17.8999 17.0881 17.9703 16.8907 18.1021C16.6934 18.234 16.5396 18.4214 16.4488 18.6407C16.358 18.8599 16.3342 19.1012 16.3805 19.334C16.4268 19.5668 16.5411 19.7806 16.7089 19.9484C16.8767 20.1162 17.0905 20.2305 17.3233 20.2768C17.5561 20.3231 17.7974 20.2994 18.0166 20.2086C18.2359 20.1177 18.4233 19.9639 18.5552 19.7666C18.687 19.5692 18.7574 19.3372 18.7574 19.0999C18.7574 18.7816 18.631 18.4764 18.406 18.2514C18.1809 18.0263 17.8757 17.8999 17.5574 17.8999ZM17.5574 19.4409C17.4892 19.4409 17.4225 19.4207 17.3658 19.3828C17.309 19.3448 17.2648 19.2909 17.2387 19.2279C17.2126 19.1649 17.2057 19.0955 17.219 19.0286C17.2324 18.9617 17.2652 18.9002 17.3135 18.8519C17.3617 18.8037 17.4232 18.7708 17.4901 18.7575C17.5571 18.7442 17.6264 18.751 17.6894 18.7772C17.7525 18.8033 17.8064 18.8475 17.8443 18.9042C17.8822 18.9609 17.9024 19.0277 17.9024 19.0959C17.9024 19.1412 17.8935 19.186 17.8762 19.2279C17.8588 19.2698 17.8334 19.3078 17.8014 19.3398C17.7693 19.3719 17.7313 19.3973 17.6894 19.4146C17.6476 19.432 17.6027 19.4409 17.5574 19.4409Z" fill="#253844"/>
<path d="M14.4512 17.1869C14.7527 17.1639 15.0344 17.0278 15.2399 16.806C15.4454 16.5841 15.5596 16.2929 15.5596 15.9904C15.5596 15.688 15.4454 15.3968 15.2399 15.1749C15.0344 14.9531 14.7527 14.817 14.4512 14.7939C14.1497 14.817 13.868 14.9531 13.6625 15.1749C13.4569 15.3968 13.3428 15.688 13.3428 15.9904C13.3428 16.2929 13.4569 16.5841 13.6625 16.806C13.868 17.0278 14.1497 17.1639 14.4512 17.1869ZM14.4512 15.6449C14.5194 15.6449 14.5861 15.6652 14.6429 15.7031C14.6996 15.741 14.7438 15.7949 14.7699 15.8579C14.796 15.921 14.8029 15.9903 14.7896 16.0573C14.7762 16.1242 14.7434 16.1856 14.6951 16.2339C14.6469 16.2821 14.5854 16.315 14.5185 16.3283C14.4516 16.3416 14.3822 16.3348 14.3192 16.3087C14.2561 16.2826 14.2022 16.2384 14.1643 16.1816C14.1264 16.1249 14.1062 16.0582 14.1062 15.9899C14.1062 15.9446 14.1151 15.8998 14.1325 15.8579C14.1498 15.8161 14.1752 15.778 14.2072 15.746C14.2719 15.6813 14.3597 15.6449 14.4512 15.6449Z" fill="#253844"/>
<path d="M18.7492 15.2999C18.7493 15.1997 18.7197 15.1018 18.6641 15.0185C18.6085 14.9352 18.5294 14.8703 18.4369 14.832C18.3444 14.7937 18.2426 14.7836 18.1444 14.8032C18.0462 14.8228 17.956 14.871 17.8852 14.9419L13.4002 19.4279C13.3053 19.5228 13.252 19.6516 13.252 19.7859C13.252 19.9201 13.3053 20.0489 13.4002 20.1439C13.4952 20.2388 13.624 20.2922 13.7582 20.2922C13.8925 20.2922 14.0213 20.2388 14.1162 20.1439L18.6012 15.6579C18.6485 15.611 18.6859 15.5553 18.7113 15.4938C18.7367 15.4323 18.7496 15.3664 18.7492 15.2999Z" fill="#253844"/>
</svg>
