<svg width="24" height="24" viewBox="0 0 24 24" fill="none" xmlns="http://www.w3.org/2000/svg">
<mask id="mask0_260_791" style="mask-type:luminance" maskUnits="userSpaceOnUse" x="4" y="3" width="17" height="19">
<path d="M20.461 3.00098H4V21.118H20.461V3.00098Z" fill="white"/>
</mask>
<g mask="url(#mask0_260_791)">
<path d="M4.91477 13.468C4.73112 13.4679 4.55174 13.4126 4.39995 13.3092C4.24816 13.2058 4.13099 13.0592 4.06368 12.8883C3.99637 12.7175 3.98203 12.5303 4.02253 12.3512C4.06303 12.172 4.1565 12.0092 4.29077 11.884L9.15577 7.42195C9.33154 7.25646 9.56582 7.16751 9.80713 7.17464C10.0484 7.18176 10.2771 7.28438 10.4428 7.45995L12.3698 9.52695L16.7288 5.37095L16.0538 4.62795C15.9336 4.49702 15.8541 4.334 15.8249 4.15871C15.7957 3.98342 15.818 3.80342 15.8892 3.6406C15.9604 3.47777 16.0774 3.33914 16.2259 3.24156C16.3744 3.14398 16.5481 3.09166 16.7258 3.09095L19.5788 3.00195C19.8202 3.01108 20.0482 3.11519 20.2132 3.29161C20.3782 3.46804 20.4668 3.7025 20.4598 3.94395L20.2998 6.81895C20.2938 6.99941 20.2341 7.17398 20.1283 7.32027C20.0224 7.46655 19.8753 7.57787 19.7058 7.63995C19.6031 7.67975 19.4939 7.69977 19.3838 7.69895C19.2596 7.69886 19.1368 7.67345 19.0228 7.62428C18.9088 7.57511 18.806 7.5032 18.7208 7.41295L17.9718 6.70195L12.9488 11.483C12.7801 11.6429 12.5562 11.7314 12.3238 11.73C12.1996 11.7297 12.0768 11.7043 11.9629 11.6551C11.8489 11.606 11.7461 11.5341 11.6608 11.444L9.73577 9.37795L5.53577 13.223C5.36605 13.3809 5.14264 13.4685 4.91077 13.468" fill="black" fill-opacity="0.6"/>
<path d="M5.55737 21.118C5.44969 21.118 5.34642 21.0752 5.27028 20.9991C5.19414 20.9229 5.15137 20.8196 5.15137 20.712V17.418C5.15137 16.9607 5.333 16.5222 5.65632 16.1989C5.97963 15.8756 6.41813 15.694 6.87537 15.694C7.3326 15.694 7.77111 15.8756 8.09442 16.1989C8.41773 16.5222 8.59937 16.9607 8.59937 17.418V20.713C8.59937 20.8206 8.55659 20.9239 8.48045 21.0001C8.40431 21.0762 8.30104 21.119 8.19337 21.119L5.55737 21.118Z" fill="black" fill-opacity="0.6"/>
<path d="M11.488 21.118C11.4347 21.118 11.3819 21.1075 11.3327 21.0871C11.2834 21.0667 11.2386 21.0368 11.2009 20.9991C11.1632 20.9614 11.1333 20.9166 11.1129 20.8673C11.0925 20.8181 11.082 20.7653 11.082 20.712V14.782C11.082 14.3249 11.2636 13.8865 11.5868 13.5633C11.9101 13.2401 12.3484 13.0585 12.8055 13.0585C13.2626 13.0585 13.701 13.2401 14.0242 13.5633C14.3474 13.8865 14.529 14.3249 14.529 14.782V20.714C14.529 20.7673 14.5185 20.8201 14.4981 20.8693C14.4777 20.9186 14.4478 20.9634 14.4101 21.0011C14.3724 21.0388 14.3277 21.0687 14.2784 21.0891C14.2291 21.1095 14.1763 21.12 14.123 21.12L11.488 21.118Z" fill="black" fill-opacity="0.6"/>
<path d="M17.4206 21.1189C17.313 21.1189 17.2097 21.0761 17.1336 21C17.0574 20.9239 17.0146 20.8206 17.0146 20.7129V12.1459C17.0146 11.9196 17.0592 11.6955 17.1458 11.4864C17.2325 11.2773 17.3594 11.0873 17.5195 10.9272C17.6795 10.7672 17.8695 10.6402 18.0786 10.5536C18.2877 10.467 18.5118 10.4224 18.7381 10.4224C18.9645 10.4224 19.1886 10.467 19.3977 10.5536C19.6068 10.6402 19.7968 10.7672 19.9568 10.9272C20.1169 11.0873 20.2438 11.2773 20.3305 11.4864C20.4171 11.6955 20.4616 11.9196 20.4616 12.1459V20.7129C20.4616 20.8206 20.4189 20.9239 20.3427 21C20.2666 21.0761 20.1633 21.1189 20.0556 21.1189H17.4206Z" fill="black" fill-opacity="0.6"/>
</g>
</svg>
