<svg width="24" height="24" viewBox="0 0 24 24" fill="none" xmlns="http://www.w3.org/2000/svg">
<path d="M9.681 9.94479C9.67734 9.88554 9.68633 9.82618 9.70735 9.77065C9.72837 9.71513 9.76095 9.6647 9.80293 9.62272C9.84491 9.58074 9.89533 9.54816 9.95086 9.52714C10.0064 9.50612 10.0657 9.49714 10.125 9.50079H13.586C13.7014 9.50811 13.8101 9.55723 13.8918 9.63897C13.9736 9.7207 14.0227 9.82944 14.03 9.94479C14.0337 10.0041 14.0247 10.0634 14.0037 10.1189C13.9826 10.1745 13.9501 10.2249 13.9081 10.2669C13.8661 10.3088 13.8157 10.3414 13.7601 10.3624C13.7046 10.3835 13.6453 10.3924 13.586 10.3888H12.965L13.231 10.9218H13.586C13.7038 10.9218 13.8167 10.9686 13.9 11.0518C13.9832 11.1351 14.03 11.248 14.03 11.3658C14.03 11.4835 13.9832 11.5965 13.9 11.6797C13.8167 11.763 13.7038 11.8098 13.586 11.8098H13.323C13.2738 12.334 13.0255 12.8194 12.6293 13.1661C12.2331 13.5128 11.7191 13.6945 11.193 13.6738H11.015L12.701 15.4488C12.7833 15.5311 12.8296 15.6428 12.8296 15.7593C12.8296 15.8757 12.7833 15.9874 12.701 16.0698C12.6186 16.1521 12.507 16.1984 12.3905 16.1984C12.274 16.1984 12.1623 16.1521 12.08 16.0698L9.77 13.5788C9.72798 13.5387 9.69452 13.4906 9.67167 13.4372C9.64881 13.3838 9.63703 13.3264 9.63703 13.2683C9.63703 13.2102 9.64881 13.1528 9.67167 13.0994C9.69452 13.046 9.72798 12.9979 9.77 12.9578C9.80492 12.9241 9.84692 12.8986 9.89294 12.8832C9.93896 12.8678 9.98783 12.8629 10.036 12.8688H11.19C11.4675 12.8719 11.7369 12.775 11.9488 12.5957C12.1607 12.4165 12.301 12.167 12.344 11.8928H9.944C9.82624 11.8928 9.71331 11.846 9.63004 11.7627C9.54678 11.6795 9.5 11.5665 9.5 11.4488C9.5 11.331 9.54678 11.2181 9.63004 11.1348C9.71331 11.0516 9.82624 11.0048 9.944 11.0048H12.344C12.2348 10.8453 12.0895 10.7139 11.9199 10.6213C11.7503 10.5286 11.5612 10.4774 11.368 10.4718H10.213C9.85767 10.3831 9.68 10.2055 9.68 9.93879" fill="#253844"/>
<path d="M19.6792 10.2852L18.9032 10.924C18.018 11.6528 18.018 13.0082 18.9032 13.7369L19.6792 14.3758C19.9542 14.6022 20.0253 14.9942 19.8472 15.3027L18.3149 17.9567C18.1367 18.2652 17.7617 18.3997 17.4282 18.2748L16.4869 17.9221C15.4132 17.5199 14.2393 18.1976 14.0508 19.3286L13.8856 20.3201C13.8271 20.6714 13.523 20.9289 13.1669 20.9289H10.1022C9.746 20.9289 9.44199 20.6714 9.38344 20.3201L9.21818 19.3286C9.0297 18.1976 7.85583 17.5199 6.78216 17.9221L5.84092 18.2748C5.50733 18.3997 5.13231 18.2652 4.95419 17.9567L3.42188 15.3027C3.24379 14.9942 3.3148 14.6022 3.5898 14.3758L4.36585 13.7369C5.25102 13.0082 5.25102 11.6528 4.36585 10.924L3.5898 10.2852C3.3148 10.0588 3.24379 9.66677 3.42188 9.35828L4.95419 6.70424C5.13231 6.39575 5.50733 6.26124 5.84092 6.38621L6.78216 6.73882C7.85583 7.14105 9.0297 6.46334 9.21818 5.33239L9.38344 4.34091C9.44199 3.98957 9.746 3.73206 10.1022 3.73206H13.1669C13.523 3.73206 13.8271 3.98957 13.8856 4.34091L14.0508 5.33239C14.2393 6.46334 15.4132 7.14105 16.4869 6.73882L17.4282 6.38621C17.7617 6.26124 18.1367 6.39575 18.3149 6.70424L19.8472 9.35828C20.0253 9.66677 19.9542 10.0588 19.6792 10.2852Z" stroke="#253844" stroke-width="1.1" stroke-miterlimit="10" stroke-linecap="round" stroke-linejoin="round"/>
</svg>
