<svg width="12" height="12" viewBox="0 0 12 12" fill="none" xmlns="http://www.w3.org/2000/svg">
<mask id="mask0_64_3412" style="mask-type:luminance" maskUnits="userSpaceOnUse" x="0" y="0" width="12" height="12">
<path d="M12 0H0V12H12V0Z" fill="white"/>
</mask>
<g mask="url(#mask0_64_3412)">
<path d="M11.6718 3.95506C11.6288 3.8385 11.5413 3.74378 11.4285 3.69174C11.3157 3.6397 11.1869 3.6346 11.0703 3.67756C10.9538 3.72053 10.859 3.80804 10.807 3.92084C10.7549 4.03364 10.7499 4.1625 10.7928 4.27906C10.9978 4.83826 11.1017 5.42947 11.0996 6.02506C11.0997 7.11589 10.7485 8.17774 10.0979 9.05334C9.44738 9.92895 8.53211 10.5717 7.48769 10.8865C6.44326 11.2012 5.32523 11.1712 4.2992 10.8009C3.27317 10.4305 2.39371 9.73955 1.79109 8.83029C1.18848 7.92104 0.894745 6.84187 0.953413 5.75262C1.01208 4.66338 1.42003 3.622 2.11682 2.78273C2.81362 1.94347 3.76221 1.35095 4.82208 1.09296C5.88195 0.834959 6.99674 0.9252 8.00132 1.35031C8.05814 1.37454 8.11919 1.38734 8.18097 1.38798C8.24274 1.38861 8.30404 1.37708 8.36135 1.35402C8.41867 1.33097 8.47089 1.29686 8.51502 1.25363C8.55915 1.21039 8.59434 1.15889 8.61857 1.10206C8.64279 1.04523 8.65559 0.984188 8.65623 0.922412C8.65687 0.860637 8.64533 0.799341 8.62228 0.742024C8.59923 0.684707 8.56511 0.632492 8.52188 0.588359C8.47865 0.544227 8.42715 0.509042 8.37032 0.484813C7.18036 -0.0195966 5.85958 -0.127307 4.60362 0.177637C3.34766 0.482581 2.22333 1.18396 1.39716 2.17788C0.570995 3.1718 0.0869423 4.40539 0.0167046 5.69593C-0.0535332 6.98647 0.29378 8.26531 1.0072 9.34302C1.72061 10.4207 2.76219 11.24 3.97763 11.6794C5.19308 12.1189 6.51775 12.1552 7.75542 11.7829C8.99309 11.4106 10.0779 10.6496 10.8492 9.61249C11.6206 8.57543 12.0373 7.31751 12.0378 6.02506C12.0369 5.31905 11.9131 4.61858 11.6718 3.95506Z" fill="black" fill-opacity="0.6" stroke="black" stroke-opacity="0.6" stroke-width="0.1"/>
<path d="M7.75292 4.49052C7.80875 4.46992 7.85945 4.43747 7.90153 4.39539C7.94361 4.35331 7.97607 4.3026 7.99667 4.24677C8.01952 4.19234 8.0278 4.13288 8.02067 4.07427C8.01628 3.96024 7.96726 3.8525 7.88417 3.77427C7.80353 3.69463 7.6972 3.64625 7.58417 3.63777H4.73417C4.67563 3.63361 4.61686 3.64179 4.56167 3.66177C4.50584 3.68238 4.45514 3.71483 4.41306 3.75691C4.37098 3.79899 4.33852 3.84969 4.31792 3.90552C4.29883 3.959 4.28869 4.01525 4.28792 4.07202C4.28792 4.25052 4.37117 4.48227 4.79942 4.58352H5.74967C5.89771 4.58511 6.04296 4.62407 6.17192 4.69677C6.25679 4.74566 6.33473 4.8057 6.40367 4.87527H4.57817C4.52057 4.87533 4.46356 4.8869 4.41049 4.90931C4.35742 4.93172 4.30937 4.96452 4.26917 5.00577C4.18681 5.08766 4.13994 5.19864 4.13867 5.31477C4.13872 5.37238 4.1503 5.42939 4.17271 5.48246C4.19512 5.53552 4.22792 5.58357 4.26917 5.62377C4.35105 5.70614 4.46204 5.75301 4.57817 5.75427H6.46292C6.4173 5.92805 6.3197 6.08374 6.18317 6.20052C6.02148 6.3357 5.81717 6.40929 5.60642 6.40827H4.66742C4.6167 6.40226 4.56528 6.40843 4.51742 6.42627C4.46977 6.44324 4.42557 6.46865 4.38692 6.50127C4.3446 6.54078 4.312 6.58956 4.29167 6.64377C4.27121 6.6971 4.25907 6.75326 4.25567 6.81027C4.25555 6.86772 4.26783 6.92451 4.29167 6.97677C4.31497 7.02763 4.34723 7.07386 4.38692 7.11328L6.29867 9.17578C6.33911 9.21636 6.38732 9.24837 6.44041 9.26989C6.4935 9.29141 6.55039 9.302 6.60767 9.30102C6.72291 9.30038 6.83351 9.25555 6.91667 9.17578C6.99739 9.09328 7.04215 8.98218 7.04117 8.86677C7.03947 8.75189 6.99509 8.64175 6.91667 8.55777L5.64167 7.21978C6.08575 7.23479 6.51834 7.07697 6.84842 6.77952C7.17396 6.49818 7.38371 6.1062 7.43717 5.67927H7.58717C7.64478 5.67922 7.70179 5.66765 7.75486 5.64524C7.80792 5.62283 7.85597 5.59003 7.89617 5.54877C7.97861 5.46694 8.02549 5.35593 8.02667 5.23977C8.02662 5.18217 8.01505 5.12516 7.99264 5.07209C7.97023 5.01903 7.93743 4.97098 7.89617 4.93077C7.81429 4.84841 7.70331 4.80154 7.58717 4.80027H7.33742L7.19492 4.50927H7.58117C7.63972 4.51344 7.69849 4.50526 7.75367 4.48527L7.75292 4.49052Z" fill="black" fill-opacity="0.6"/>
<path d="M8.50476 2.39378C8.51011 2.45006 8.52651 2.50474 8.55302 2.55467C8.57953 2.60461 8.61564 2.64882 8.65926 2.68478L9.56901 3.45053C9.58583 3.4621 9.60365 3.47214 9.62226 3.48053L9.64026 3.49253L9.68751 3.52253C9.78671 3.5621 9.89731 3.5621 9.99651 3.52253L9.97551 3.45053L10.0115 3.51578C10.023 3.50704 10.035 3.49903 10.0475 3.49178L10.0115 3.42653L10.0648 3.47978C10.0831 3.47078 10.1008 3.46077 10.118 3.44978L11.0278 2.68253C11.0719 2.64732 11.108 2.6032 11.1339 2.55305C11.1597 2.50291 11.1747 2.44786 11.1778 2.39153C11.1865 2.27733 11.1502 2.16425 11.0765 2.07653C11.0405 2.03274 10.9961 1.99658 10.9459 1.97015C10.8957 1.94371 10.8408 1.92755 10.7843 1.92259C10.7278 1.91763 10.6709 1.92398 10.6169 1.94127C10.5629 1.95856 10.5129 1.98644 10.4698 2.02328L10.268 2.19578V0.639527C10.2704 0.581831 10.2612 0.524241 10.2407 0.470223C10.2203 0.416204 10.1892 0.366872 10.1492 0.325193C10.1093 0.283515 10.0613 0.25035 10.0082 0.227694C9.95504 0.205038 9.89789 0.193359 9.84014 0.193359C9.78239 0.193359 9.72524 0.205038 9.67212 0.227694C9.61901 0.25035 9.57102 0.283515 9.53105 0.325193C9.49108 0.366872 9.45995 0.416204 9.43954 0.470223C9.41913 0.524241 9.40985 0.581831 9.41226 0.639527V2.19728L9.20976 2.02478C9.16665 1.98794 9.11663 1.96006 9.06263 1.94277C9.00862 1.92548 8.95171 1.91913 8.89522 1.92409C8.83873 1.92905 8.78379 1.94521 8.73362 1.97165C8.68345 1.99808 8.63905 2.03424 8.60301 2.07803C8.53281 2.16775 8.49786 2.28006 8.50476 2.39378Z" fill="black" fill-opacity="0.6"/>
</g>
</svg>
