<svg width="24" height="24" viewBox="0 0 24 24" fill="none" xmlns="http://www.w3.org/2000/svg">
<mask id="mask0_288_1679" style="mask-type:luminance" maskUnits="userSpaceOnUse" x="0" y="0" width="24" height="24">
<path d="M24 0H0V24H24V0Z" fill="white"/>
</mask>
<g mask="url(#mask0_288_1679)">
<path d="M4.59304 12.928C4.34692 12.928 4.11088 12.8303 3.93684 12.6562C3.76281 12.4822 3.66504 12.2461 3.66504 12C3.66504 11.7539 3.76281 11.5179 3.93684 11.3438C4.11088 11.1698 4.34692 11.072 4.59304 11.072H19.406C19.528 11.0717 19.6488 11.0954 19.7616 11.1419C19.8744 11.1884 19.9768 11.2568 20.063 11.343C20.1493 11.4293 20.2178 11.5317 20.2645 11.6444C20.3112 11.7572 20.3352 11.878 20.3352 12C20.3352 12.122 20.3112 12.2429 20.2645 12.3556C20.2178 12.4683 20.1493 12.5708 20.063 12.657C19.9769 12.7434 19.8745 12.8119 19.7617 12.8584C19.6489 12.9049 19.528 12.9286 19.406 12.928H4.59304Z" fill="#F23057" fill-opacity="0.8"/>
<path d="M4.59304 7.17101C4.34692 7.17101 4.11088 7.07324 3.93684 6.89921C3.76281 6.72517 3.66504 6.48913 3.66504 6.24301C3.66504 5.99689 3.76281 5.76085 3.93684 5.58682C4.11088 5.41278 4.34692 5.31501 4.59304 5.31501H19.406C19.5281 5.31444 19.6491 5.33819 19.7619 5.38489C19.8747 5.4316 19.9771 5.50031 20.063 5.58701C20.1928 5.71685 20.2811 5.88227 20.3169 6.06232C20.3526 6.24238 20.3342 6.42899 20.2638 6.59855C20.1935 6.76811 20.0745 6.91301 19.9218 7.01491C19.7691 7.11681 19.5896 7.17113 19.406 7.17101H4.59304Z" fill="#F23057" fill-opacity="0.8"/>
<path d="M4.59324 18.685C4.34749 18.6842 4.1119 18.5869 3.93724 18.414C3.80733 18.2842 3.71884 18.1187 3.68295 17.9386C3.64706 17.7584 3.66537 17.5717 3.73558 17.4019C3.80578 17.2322 3.92473 17.0871 4.07738 16.9849C4.23004 16.8828 4.40955 16.8282 4.59324 16.828H19.4062C19.5307 16.8239 19.6548 16.8449 19.771 16.8897C19.8872 16.9346 19.9932 17.0023 20.0827 17.0889C20.1723 17.1755 20.2434 17.2793 20.292 17.394C20.3407 17.5087 20.3657 17.632 20.3657 17.7565C20.3657 17.8811 20.3407 18.0044 20.292 18.1191C20.2434 18.2337 20.1723 18.3375 20.0827 18.4241C19.9932 18.5107 19.8872 18.5785 19.771 18.6233C19.6548 18.6681 19.5307 18.6891 19.4062 18.685H4.59324Z" fill="#F23057" fill-opacity="0.8"/>
</g>
</svg>
