<svg width="24" height="24" viewBox="0 0 24 24" fill="none" xmlns="http://www.w3.org/2000/svg">
<g clip-path="url(#clip0_15_11075)">
<path d="M11.9385 19.498C11.9102 19.4978 11.8818 19.4976 11.8535 19.4971C11.8818 19.4976 11.9101 19.4978 11.9385 19.498ZM12.2959 19.4922C12.2185 19.4952 12.141 19.4974 12.0635 19.498C12.1411 19.4974 12.2185 19.4952 12.2959 19.4922ZM11.6719 19.4922C11.6279 19.4903 11.584 19.4871 11.54 19.4844C11.584 19.4871 11.6279 19.4903 11.6719 19.4922ZM12.7158 19.4648C12.6193 19.4741 12.5226 19.4808 12.4258 19.4863C12.5227 19.4808 12.6193 19.4741 12.7158 19.4648ZM11.4023 19.4756C11.3548 19.4718 11.3073 19.4666 11.2598 19.4619C11.3073 19.4666 11.3547 19.4718 11.4023 19.4756ZM13.0488 19.4248C12.952 19.4385 12.8551 19.4511 12.7578 19.4609C12.8551 19.4511 12.952 19.4385 13.0488 19.4248ZM11.1299 19.4482C11.0865 19.4432 11.0433 19.4375 11 19.4316C11.0433 19.4375 11.0865 19.4432 11.1299 19.4482ZM10.8418 19.4092C10.8092 19.4041 10.7767 19.3981 10.7441 19.3926C10.7767 19.3981 10.8092 19.4041 10.8418 19.4092ZM13.3682 19.3721C13.3094 19.383 13.2504 19.3928 13.1914 19.4023C13.2505 19.3928 13.3094 19.383 13.3682 19.3721ZM10.5576 19.3594L10.5371 19.3555C10.5201 19.3521 10.5033 19.3472 10.4863 19.3438C10.5102 19.3487 10.5337 19.3547 10.5576 19.3594ZM13.7148 19.2998C13.6492 19.3152 13.5835 19.3301 13.5176 19.3438C13.5836 19.3301 13.6492 19.3152 13.7148 19.2998ZM10.3027 19.3047C10.2704 19.2972 10.2382 19.2892 10.2061 19.2812C10.2383 19.2892 10.2704 19.2972 10.3027 19.3047ZM14.1201 19.1934C14.0579 19.2117 13.9952 19.2284 13.9326 19.2451C13.9953 19.2284 14.0579 19.2117 14.1201 19.1934ZM10.0127 19.2314C9.99799 19.2274 9.98343 19.2229 9.96875 19.2188C9.98343 19.2229 9.99799 19.2274 10.0127 19.2314ZM14.4229 19.0957C14.3709 19.1134 14.3189 19.1309 14.2666 19.1475C14.3189 19.1309 14.3709 19.1134 14.4229 19.0957ZM9.49512 19.0684C9.46016 19.056 9.42538 19.0432 9.39062 19.0303C9.42539 19.0432 9.46017 19.056 9.49512 19.0684ZM14.709 18.9912C14.6705 19.0061 14.6324 19.0219 14.5938 19.0361C14.6324 19.0219 14.6705 19.0061 14.709 18.9912ZM9.25879 18.9795C9.22164 18.9649 9.18436 18.9507 9.14746 18.9355C9.18437 18.9507 9.22165 18.9649 9.25879 18.9795ZM15.1592 18.8018C15.0995 18.8295 15.039 18.8556 14.9785 18.8818C15.039 18.8557 15.0995 18.8295 15.1592 18.8018ZM8.9707 18.8604C8.94778 18.8502 8.92516 18.8395 8.90234 18.8291C8.92517 18.8395 8.94778 18.8502 8.9707 18.8604ZM8.72656 18.7471C8.71084 18.7394 8.69535 18.7314 8.67969 18.7236C8.69536 18.7314 8.71085 18.7394 8.72656 18.7471ZM15.4717 18.6455C15.4114 18.677 15.3512 18.7084 15.29 18.7383C15.3512 18.7084 15.4114 18.677 15.4717 18.6455ZM8.47656 18.6201C8.45856 18.6105 8.44078 18.6005 8.42285 18.5908C8.44078 18.6006 8.45856 18.6105 8.47656 18.6201ZM15.8076 18.4609C15.7313 18.5059 15.6541 18.5495 15.5762 18.5918C15.6541 18.5495 15.7313 18.5059 15.8076 18.4609ZM8.24609 18.4922C8.22715 18.4812 8.20831 18.4701 8.18945 18.459C8.20831 18.4701 8.22715 18.4812 8.24609 18.4922ZM16.1182 18.2666C16.0632 18.3028 16.0072 18.3374 15.9512 18.3721C16.0072 18.3374 16.0631 18.3028 16.1182 18.2666ZM7.77539 18.1963C7.75182 18.1802 7.72848 18.1638 7.70508 18.1475C7.72846 18.1638 7.7518 18.1802 7.77539 18.1963ZM16.3799 18.0859C16.334 18.119 16.2879 18.1516 16.2412 18.1836C16.2878 18.1516 16.334 18.119 16.3799 18.0859ZM7.54395 18.0322C7.52656 18.0194 7.50947 18.0062 7.49219 17.9932C7.50946 18.0062 7.52655 18.0194 7.54395 18.0322ZM7.35352 17.8867C7.31538 17.8566 7.27781 17.8258 7.24023 17.7949C7.27778 17.8258 7.31534 17.8566 7.35352 17.8867ZM17.001 17.5889C16.9478 17.6364 16.8934 17.6825 16.8389 17.7285C16.8933 17.6825 16.9478 17.6365 17.001 17.5889ZM7.11523 17.6904C7.10211 17.6792 7.08923 17.6676 7.07617 17.6562C7.08922 17.6676 7.1021 17.6792 7.11523 17.6904ZM6.91797 17.5156C6.88869 17.4886 6.85993 17.4611 6.83105 17.4336C6.85991 17.461 6.88866 17.4886 6.91797 17.5156ZM17.25 17.3545C17.2012 17.4024 17.1517 17.4496 17.1016 17.4961C17.1517 17.4496 17.2011 17.4024 17.25 17.3545ZM6.72852 17.335L6.69629 17.3037C6.67805 17.2855 6.66061 17.2665 6.64258 17.248C6.67109 17.2771 6.69953 17.3063 6.72852 17.335ZM17.4941 17.1035C17.4457 17.1557 17.3966 17.2071 17.3467 17.2578C17.3966 17.207 17.4457 17.1556 17.4941 17.1035ZM6.52246 17.123C6.49569 17.0944 6.46965 17.0651 6.44336 17.0361C6.46967 17.0652 6.4957 17.0944 6.52246 17.123ZM6.33789 16.917C6.30926 16.884 6.28096 16.8508 6.25293 16.8174C6.28097 16.8508 6.30927 16.884 6.33789 16.917ZM17.75 16.8145C17.7267 16.8422 17.7024 16.8691 17.6787 16.8965C17.7024 16.869 17.7267 16.8422 17.75 16.8145ZM6.17285 16.7217C6.14467 16.6869 6.11737 16.6515 6.08984 16.6162C6.11739 16.6515 6.14468 16.6869 6.17285 16.7217ZM17.9502 16.5635C17.9232 16.5986 17.8957 16.6333 17.8682 16.668C17.8957 16.6333 17.9232 16.5986 17.9502 16.5635ZM5.99414 16.4912C5.97027 16.4593 5.94718 16.4268 5.92383 16.3945C5.94719 16.4268 5.97027 16.4593 5.99414 16.4912ZM18.3857 15.9326L18.2363 16.167L18.3984 15.9111C18.3941 15.9182 18.3901 15.9255 18.3857 15.9326ZM5.83789 16.2744C5.81329 16.2389 5.7896 16.2029 5.76562 16.167C5.78962 16.2029 5.81329 16.239 5.83789 16.2744ZM5.68262 16.041C5.66134 16.0078 5.64086 15.974 5.62012 15.9404C5.64087 15.974 5.66135 16.0078 5.68262 16.041ZM5.53809 15.8057C5.52091 15.7765 5.50408 15.7472 5.4873 15.7178C5.50409 15.7472 5.52092 15.7765 5.53809 15.8057ZM18.5781 15.5996C18.5467 15.657 18.5144 15.7139 18.4814 15.7705C18.5144 15.7139 18.5467 15.6571 18.5781 15.5996ZM18.7334 15.3008C18.7038 15.3612 18.6728 15.4208 18.6416 15.4805C18.6728 15.4209 18.7038 15.3612 18.7334 15.3008ZM18.9092 14.917C18.8916 14.9586 18.8728 14.9997 18.8545 15.041C18.8728 14.9997 18.8916 14.9586 18.9092 14.917ZM5.04492 14.8066C5.03174 14.774 5.01957 14.7409 5.00684 14.708C5.01956 14.7409 5.03173 14.7739 5.04492 14.8066ZM19.0332 14.6016C19.0131 14.6559 18.9921 14.7098 18.9707 14.7637C18.9921 14.7098 19.0131 14.6559 19.0332 14.6016ZM19.1475 14.2676C19.1262 14.3345 19.1051 14.4015 19.082 14.4678C19.1051 14.4014 19.1262 14.3345 19.1475 14.2676ZM4.78125 14.0312C4.76774 13.9832 4.75475 13.9351 4.74219 13.8867C4.75474 13.935 4.76772 13.9832 4.78125 14.0312ZM19.2559 13.8936C19.2496 13.9177 19.2429 13.9417 19.2363 13.9658C19.2429 13.9417 19.2496 13.9177 19.2559 13.8936ZM4.71191 13.7695C4.70191 13.7283 4.6929 13.6869 4.68359 13.6455C4.6929 13.6869 4.70191 13.7283 4.71191 13.7695ZM19.3369 13.5498C19.3263 13.6001 19.3154 13.6502 19.3037 13.7002C19.3153 13.6502 19.3263 13.6 19.3369 13.5498ZM4.59863 13.2109C4.59262 13.1742 4.58749 13.1374 4.58203 13.1006C4.58749 13.1374 4.59263 13.1742 4.59863 13.2109ZM19.459 12.7715C19.4519 12.84 19.4435 12.9083 19.4346 12.9766C19.4435 12.9083 19.4519 12.84 19.459 12.7715ZM4.55957 12.9404C4.55468 12.9017 4.55018 12.863 4.5459 12.8242C4.55019 12.863 4.55468 12.9017 4.55957 12.9404ZM4.53223 12.6836C4.52829 12.6406 4.52467 12.5977 4.52148 12.5547C4.52467 12.5977 4.5283 12.6406 4.53223 12.6836ZM19.4863 12.4297C19.4817 12.5109 19.4751 12.5919 19.4678 12.6729C19.4751 12.5919 19.4817 12.5109 19.4863 12.4297ZM4.51074 12.3896C4.50879 12.3522 4.50724 12.3148 4.50586 12.2773C4.50725 12.3148 4.5088 12.3522 4.51074 12.3896ZM19.4951 12.2773C19.4945 12.295 19.492 12.3125 19.4912 12.3301C19.496 12.2202 19.5 12.1102 19.5 12L19.4951 12.2773ZM4.50098 11.8525C4.50183 11.8092 4.50426 11.7659 4.50586 11.7227C4.50426 11.766 4.50183 11.8092 4.50098 11.8525ZM19.4844 11.5391C19.4871 11.583 19.4903 11.6269 19.4922 11.6709C19.4903 11.6269 19.4871 11.583 19.4844 11.5391ZM4.5127 11.5664C4.51441 11.5367 4.51746 11.5072 4.51953 11.4775C4.51746 11.5072 4.51441 11.5368 4.5127 11.5664ZM4.53516 11.2812C4.53873 11.2441 4.54274 11.207 4.54688 11.1699C4.54274 11.207 4.53873 11.2441 4.53516 11.2812ZM19.458 11.2158C19.4597 11.2321 19.4613 11.2484 19.4629 11.2646C19.4613 11.2484 19.4597 11.2321 19.458 11.2158ZM4.56543 11.0127C4.5685 10.9896 4.57191 10.9665 4.5752 10.9434C4.57191 10.9665 4.5685 10.9896 4.56543 11.0127ZM4.6084 10.7314C4.61176 10.7119 4.61563 10.6924 4.61914 10.6729C4.61563 10.6924 4.61176 10.7119 4.6084 10.7314ZM19.3398 10.4648C19.3457 10.4928 19.3519 10.5208 19.3574 10.5488C19.3519 10.5208 19.3457 10.4928 19.3398 10.4648ZM4.65918 10.4648C4.66833 10.4211 4.67854 10.3776 4.68848 10.334C4.67855 10.3775 4.66834 10.4211 4.65918 10.4648ZM4.71582 10.2148C4.72773 10.1662 4.74004 10.1177 4.75293 10.0693C4.74005 10.1177 4.72774 10.1662 4.71582 10.2148ZM4.7832 9.95801C4.79643 9.91125 4.81105 9.86489 4.8252 9.81836C4.81106 9.86485 4.79644 9.91121 4.7832 9.95801ZM4.87402 9.66211C4.88519 9.62808 4.89752 9.59444 4.90918 9.56055C4.89753 9.59442 4.8852 9.62806 4.87402 9.66211ZM4.95898 9.41797C4.96976 9.38858 4.98103 9.35936 4.99219 9.33008C4.98104 9.35934 4.96977 9.38856 4.95898 9.41797ZM5.06445 9.14844L5.07129 9.12988C5.07765 9.11452 5.08436 9.0993 5.09082 9.08398C5.08179 9.10537 5.07328 9.12696 5.06445 9.14844ZM18.9209 9.1123C18.9259 9.1243 18.9306 9.13642 18.9355 9.14844C18.9306 9.13642 18.9259 9.1243 18.9209 9.1123ZM5.16797 8.9043C5.1845 8.86781 5.20263 8.83208 5.21973 8.7959C5.20262 8.8321 5.1845 8.86782 5.16797 8.9043ZM5.29102 8.64648C5.30697 8.61456 5.32442 8.58342 5.34082 8.55176C5.32442 8.58344 5.30697 8.61457 5.29102 8.64648ZM18.6035 8.44629C18.6097 8.45771 18.616 8.46902 18.6221 8.48047C18.616 8.46902 18.6097 8.45771 18.6035 8.44629ZM5.4082 8.42285C5.42955 8.38351 5.4516 8.34458 5.47363 8.30566C5.45159 8.3446 5.42954 8.38353 5.4082 8.42285ZM18.4121 8.11035C18.4253 8.13207 18.4382 8.15393 18.4512 8.17578C18.4382 8.15394 18.4253 8.13208 18.4121 8.11035ZM5.54883 8.17383C5.57031 8.13761 5.59316 8.10224 5.61523 8.06641C5.59315 8.10225 5.5703 8.13762 5.54883 8.17383ZM5.70312 7.9248C5.71269 7.91002 5.72275 7.89557 5.73242 7.88086C5.72275 7.89557 5.71269 7.91003 5.70312 7.9248ZM5.86133 7.69141C5.87633 7.67003 5.892 7.64914 5.90723 7.62793C5.892 7.64915 5.87633 7.67004 5.86133 7.69141ZM17.7803 7.22266C17.798 7.24406 17.8156 7.26552 17.833 7.28711C17.8156 7.26551 17.798 7.24405 17.7803 7.22266ZM6.17871 7.27051C6.20667 7.23609 6.23608 7.20286 6.26465 7.16895C6.23606 7.20288 6.20666 7.2361 6.17871 7.27051ZM6.36621 7.0498C6.39253 7.01985 6.41949 6.99047 6.44629 6.96094C6.41948 6.99049 6.39252 7.01986 6.36621 7.0498ZM6.5459 6.85254C6.57544 6.82123 6.60565 6.79057 6.63574 6.75977C6.60564 6.79058 6.57543 6.82125 6.5459 6.85254ZM17.3037 6.69629C17.3122 6.70476 17.3197 6.71415 17.3281 6.72266C17.3067 6.70106 17.2853 6.67953 17.2637 6.6582L17.3037 6.69629ZM6.75586 6.63867C6.76688 6.62789 6.77797 6.61716 6.78906 6.60645C6.77797 6.61716 6.76689 6.62788 6.75586 6.63867ZM17.0127 6.42188C17.03 6.43743 17.0473 6.45302 17.0645 6.46875C17.0473 6.45303 17.03 6.43743 17.0127 6.42188ZM6.94141 6.46289C6.96046 6.44548 6.97978 6.42835 6.99902 6.41113C6.97979 6.42834 6.96047 6.44547 6.94141 6.46289ZM7.15625 6.27441C7.17089 6.26203 7.18546 6.24958 7.2002 6.2373C7.18547 6.24957 7.17089 6.26203 7.15625 6.27441ZM7.36133 6.10645C7.3825 6.08978 7.40442 6.07406 7.42578 6.05762C7.40443 6.07405 7.38251 6.08977 7.36133 6.10645ZM16.4238 5.94434C16.4435 5.95873 16.4628 5.97368 16.4824 5.98828C16.4628 5.97369 16.4435 5.95874 16.4238 5.94434ZM16.1172 5.73145C16.153 5.75498 16.1882 5.77954 16.2236 5.80371C16.1882 5.77956 16.153 5.755 16.1172 5.73145ZM7.80762 5.78027L7.83301 5.76367C7.85809 5.74691 7.88392 5.73129 7.90918 5.71484C7.87543 5.73681 7.84102 5.75776 7.80762 5.78027ZM8.05566 5.62109C8.06711 5.61402 8.07836 5.60662 8.08984 5.59961C8.07836 5.60662 8.06711 5.61402 8.05566 5.62109ZM15.8203 5.5459C15.8324 5.55304 15.8444 5.56018 15.8564 5.56738C15.8444 5.56018 15.8324 5.55304 15.8203 5.5459ZM8.27344 5.49121C8.31316 5.46847 8.35346 5.4468 8.39355 5.4248C8.35344 5.44681 8.31315 5.46848 8.27344 5.49121ZM15.5098 5.37207C15.5212 5.37814 15.5325 5.3845 15.5439 5.39062C15.5325 5.3845 15.5212 5.37814 15.5098 5.37207ZM8.50391 5.36426C8.53947 5.34552 8.5755 5.32772 8.61133 5.30957C8.57548 5.32773 8.53946 5.34553 8.50391 5.36426ZM15.1709 5.20312C15.2001 5.21673 15.2288 5.23114 15.2578 5.24512C15.2288 5.23114 15.2001 5.21673 15.1709 5.20312ZM8.77441 5.22852C8.7948 5.21881 8.81547 5.20972 8.83594 5.2002C8.81547 5.20972 8.79479 5.21881 8.77441 5.22852ZM9.02051 5.11719C9.05735 5.10124 9.09475 5.08664 9.13184 5.07129C9.09474 5.08665 9.05734 5.10124 9.02051 5.11719ZM9.26074 5.01855C9.30392 5.00162 9.34716 4.98488 9.39062 4.96875C9.34714 4.98489 9.3039 5.00162 9.26074 5.01855ZM9.50879 4.92578C9.55093 4.91094 9.59335 4.8969 9.63574 4.88281C9.59333 4.8969 9.55092 4.91095 9.50879 4.92578ZM14.1484 4.81445C14.1719 4.82148 14.1953 4.82869 14.2188 4.83594C14.1953 4.82868 14.1719 4.82147 14.1484 4.81445ZM9.80176 4.8291C9.8248 4.82204 9.84798 4.81544 9.87109 4.80859C9.84798 4.81544 9.8248 4.82204 9.80176 4.8291ZM10.0498 4.75781C10.0875 4.74767 10.1253 4.73807 10.1631 4.72852C10.1253 4.73807 10.0875 4.74768 10.0498 4.75781ZM10.3154 4.69141C10.3528 4.6828 10.3903 4.67503 10.4277 4.66699C10.3903 4.67503 10.3527 4.68281 10.3154 4.69141ZM13.4287 4.6377C13.4508 4.64199 13.473 4.6459 13.4951 4.65039C13.473 4.6459 13.4508 4.64199 13.4287 4.6377ZM10.5908 4.63379C10.6249 4.62726 10.6591 4.62129 10.6934 4.61523C10.6592 4.62128 10.625 4.62726 10.5908 4.63379ZM13.0879 4.5791C13.1042 4.58149 13.1204 4.58442 13.1367 4.58691C13.1204 4.58442 13.1042 4.58149 13.0879 4.5791ZM10.8779 4.58496C10.8971 4.58205 10.9163 4.57893 10.9355 4.57617C10.9163 4.57893 10.8971 4.58205 10.8779 4.58496ZM11.1377 4.5498C11.1774 4.54521 11.2171 4.54107 11.2568 4.53711C11.2171 4.54107 11.1774 4.54521 11.1377 4.5498ZM11.4023 4.52344C11.4482 4.51977 11.4941 4.51747 11.54 4.51465C11.4941 4.51747 11.4482 4.51977 11.4023 4.52344ZM12.3135 4.50684C12.3438 4.5081 12.3741 4.50911 12.4043 4.51074C12.374 4.50911 12.3438 4.5081 12.3135 4.50684ZM11.6768 4.50684C11.7174 4.50508 11.7581 4.50402 11.7988 4.50293C11.7581 4.50402 11.7174 4.50508 11.6768 4.50684Z" fill="#253844" stroke="#253844"/>
<path d="M12 11.3569C12.3549 11.3569 12.6434 11.6446 12.6436 11.9995C12.6436 12.3546 12.355 12.6431 12 12.6431C11.6451 12.6429 11.3574 12.3545 11.3574 11.9995C11.3576 11.6447 11.6452 11.3571 12 11.3569Z" fill="#253844" stroke="#253844"/>
<path d="M15.8096 11.3569C16.1645 11.3569 16.453 11.6446 16.4531 11.9995C16.4531 12.3546 16.1646 12.6431 15.8096 12.6431C15.4547 12.6429 15.167 12.3545 15.167 11.9995C15.1671 11.6447 15.4548 11.3571 15.8096 11.3569Z" fill="#253844" stroke="#253844"/>
<path d="M8.19043 11.3569C8.54538 11.3569 8.83383 11.6446 8.83398 11.9995C8.83398 12.3546 8.54547 12.6431 8.19043 12.6431C7.83552 12.6429 7.54785 12.3545 7.54785 11.9995C7.548 11.6447 7.83561 11.3571 8.19043 11.3569Z" fill="#253844" stroke="#253844"/>
</g>
<defs>
<clipPath id="clip0_15_11075">
<rect width="24" height="24" fill="white"/>
</clipPath>
</defs>
</svg>
