<svg width="17" height="18" viewBox="0 0 17 18" fill="none" xmlns="http://www.w3.org/2000/svg">
<path d="M16.6938 4.50417C16.5874 2.7341 15.1093 1.34734 13.3292 1.34734H12.4625V0.673672C12.4625 0.301805 12.1607 0 11.7888 0C11.4169 0 11.1151 0.301805 11.1151 0.673672V1.34734H5.72576V0.673672C5.72576 0.301805 5.42395 0 5.05208 0C4.68022 0 4.37841 0.301805 4.37841 0.673672V1.34734H3.51173C1.73122 1.34734 0.253183 2.7341 0.147079 4.50417C-0.0526642 7.83346 -0.048959 11.2106 0.158195 14.5415C0.263288 16.2331 1.61838 17.5882 3.30997 17.6933C5.00526 17.7987 6.71268 17.8513 8.42011 17.8513C10.1272 17.8513 11.8349 17.7987 13.5302 17.6933C15.2218 17.5882 16.5769 16.2331 16.682 14.5415C16.8895 11.2123 16.8932 7.83548 16.6938 4.50417ZM15.3377 14.458C15.2744 15.4729 14.4616 16.2857 13.447 16.3487C10.1117 16.5558 6.72919 16.5558 3.39384 16.3487C2.37895 16.2853 1.56617 15.4726 1.50318 14.458C1.34386 11.897 1.31118 9.30913 1.3964 6.73672H15.4448C15.5297 9.31014 15.497 11.8981 15.3377 14.458ZM5.05208 4.04203C5.42395 4.04203 5.72576 3.74023 5.72576 3.36836V2.69469H11.1151V3.36836C11.1151 3.74023 11.4169 4.04203 11.7888 4.04203C12.1607 4.04203 12.4625 3.74023 12.4625 3.36836V2.69469H13.3292C14.3979 2.69469 15.2852 3.52499 15.3488 4.58467C15.3647 4.85212 15.3714 5.12125 15.3845 5.38937H1.45636C1.46983 5.12125 1.47623 4.85212 1.49207 4.58467C1.55573 3.52499 2.44262 2.69469 3.51173 2.69469H4.37841V3.36836C4.37841 3.74023 4.68022 4.04203 5.05208 4.04203Z" fill="#253844"/>
</svg>
