<svg width="24" height="24" viewBox="0 0 24 24" fill="none" xmlns="http://www.w3.org/2000/svg">
<path d="M9.06931 8.82C9.06931 8.74 9.06931 8.66 9.10931 8.58C9.13932 8.5 9.17931 8.43 9.23931 8.37C9.29931 8.31 9.36931 8.27 9.44931 8.24C9.52931 8.21 9.60931 8.2 9.68931 8.2H14.4893C14.6493 8.21 14.7993 8.28 14.9093 8.39C15.0193 8.5 15.0893 8.65 15.0993 8.81C15.0993 8.89 15.0993 8.97 15.0593 9.05C15.0293 9.13 14.9893 9.2 14.9293 9.26C14.8693 9.32 14.7993 9.36 14.7193 9.39C14.6393 9.42 14.5593 9.43 14.4793 9.43H13.6193L13.9893 10.17H14.4793C14.6393 10.17 14.7993 10.23 14.9193 10.35C15.0393 10.47 15.0993 10.62 15.0993 10.79C15.0993 10.96 15.0393 11.11 14.9193 11.23C14.7993 11.35 14.6493 11.41 14.4793 11.41H14.1193C14.0493 12.14 13.7093 12.81 13.1593 13.29C12.6093 13.77 11.8993 14.02 11.1693 13.99H10.9193L13.2593 16.45C13.3693 16.56 13.4393 16.72 13.4393 16.88C13.4393 17.04 13.3793 17.2 13.2593 17.31C13.1493 17.42 12.9893 17.49 12.8293 17.49C12.6693 17.49 12.5093 17.43 12.3993 17.31L9.19931 13.86C9.13931 13.8 9.09931 13.74 9.05931 13.66C9.02931 13.59 9.00932 13.51 9.00932 13.43C9.00932 13.35 9.02931 13.27 9.05931 13.2C9.08931 13.13 9.13931 13.06 9.19931 13C9.24931 12.95 9.30931 12.92 9.36931 12.9C9.42931 12.88 9.49931 12.87 9.56931 12.88H11.1693C11.5493 12.88 11.9293 12.75 12.2193 12.5C12.5093 12.25 12.7093 11.91 12.7693 11.53H9.43931C9.27931 11.53 9.11931 11.47 8.99931 11.35C8.87931 11.23 8.81931 11.08 8.81931 10.91C8.81931 10.74 8.87931 10.59 8.99931 10.47C9.11931 10.35 9.26931 10.29 9.43931 10.29H12.7693C12.6193 10.07 12.4193 9.89 12.1793 9.76C11.9393 9.63 11.6793 9.56 11.4093 9.55H9.80931C9.31931 9.43 9.06931 9.18 9.06931 8.81V8.82ZM20.8593 8.06C20.3293 6.86 19.6193 5.8 18.7193 4.91C17.8293 4.02 16.7593 3.3 15.5593 2.78C14.3593 2.26 13.0493 2 11.6793 2C10.2193 2 8.81931 2.31 7.51931 2.92C6.21931 3.53 5.07932 4.41 4.12932 5.51L3.68931 6.03V3.33C3.68931 3.16 3.62931 3.02 3.50931 2.9C3.38931 2.78 3.24931 2.72 3.07931 2.72C2.90931 2.72 2.77931 2.78 2.65931 2.9C2.53931 3.02 2.47931 3.16 2.47931 3.33V7.37C2.47931 7.6 2.54931 7.78 2.70931 7.94C2.85931 8.09 3.04931 8.17 3.26931 8.17H7.30931C7.47931 8.17 7.62931 8.11 7.74931 7.99C7.86931 7.87 7.91931 7.73 7.91931 7.56C7.91931 7.39 7.86931 7.25 7.74931 7.13C7.62931 7.01 7.47931 6.96 7.30931 6.96H4.51932L4.84931 6.55C5.69932 5.52 6.71931 4.7 7.88931 4.11C9.05931 3.51 10.3393 3.21 11.6793 3.21C14.0993 3.21 16.1893 4.06 17.8793 5.75C19.5693 7.43 20.4293 9.51 20.4293 11.93C20.4293 14.35 19.5693 16.42 17.8793 18.11C16.1893 19.8 14.1193 20.66 11.6993 20.66C9.68931 20.66 7.86931 20.03 6.30931 18.78C4.74931 17.54 3.71931 15.93 3.24931 13.99C3.19931 13.83 3.10931 13.7 2.96931 13.6C2.85931 13.53 2.73931 13.49 2.60931 13.49C2.57931 13.49 2.53931 13.5 2.50931 13.5C2.33931 13.52 2.20931 13.6 2.09931 13.75C1.99931 13.88 1.97931 14.02 2.01931 14.19C2.53931 16.42 3.69932 18.28 5.48932 19.71C7.26931 21.14 9.35931 21.87 11.6893 21.87C13.0693 21.87 14.3693 21.61 15.5693 21.09C16.7693 20.57 17.8293 19.85 18.7193 18.96C19.6093 18.07 20.3293 17 20.8593 15.8C21.3793 14.61 21.6393 13.3 21.6393 11.93C21.6393 10.56 21.3793 9.26 20.8593 8.06Z" fill="#253844"/>
</svg>
