<svg width="24" height="24" viewBox="0 0 24 24" fill="#F23057" xmlns="http://www.w3.org/2000/svg">
<g clip-path="url(#clip0_88_5144)">
<path d="M13.0174 18.4531C12.9005 18.4555 12.7845 18.4331 12.677 18.3874C12.5694 18.3418 12.4728 18.2738 12.3934 18.1881L8.26236 14.0571C8.12885 13.9342 8.0394 13.7709 8.00778 13.5922C7.97617 13.4135 8.00412 13.2294 8.08736 13.0681C8.14378 12.9045 8.25297 12.7642 8.39778 12.6694C8.54258 12.5745 8.7148 12.5305 8.88736 12.5441H10.9534C11.1956 12.5512 11.4366 12.5059 11.6597 12.4114C11.8829 12.3168 12.083 12.1752 12.2464 11.9961C12.3886 11.8753 12.5082 11.73 12.5994 11.5671H8.88536C8.64958 11.5671 8.42346 11.4735 8.25674 11.3068C8.09002 11.14 7.99636 10.9139 7.99636 10.6781C7.99636 10.4424 8.09002 10.2162 8.25674 10.0495C8.42346 9.88281 8.64958 9.78914 8.88536 9.78914H12.5974C12.5135 9.63679 12.4023 9.50119 12.2694 9.38914C12.1046 9.2035 11.9013 9.05605 11.6736 8.95708C11.446 8.85812 11.1995 8.81002 10.9514 8.81614H8.88536C8.76718 8.82155 8.64917 8.80226 8.53886 8.75949C8.42855 8.71673 8.32838 8.65144 8.24472 8.56778C8.16107 8.48413 8.09577 8.38395 8.05301 8.27364C8.01025 8.16334 7.99095 8.04533 7.99636 7.92714C7.99094 7.80901 8.01024 7.69104 8.05301 7.58078C8.09578 7.47052 8.16109 7.37041 8.24476 7.28683C8.32844 7.20325 8.42863 7.13805 8.53893 7.09541C8.64924 7.05276 8.76723 7.03359 8.88536 7.03914H15.4594C15.5775 7.03359 15.6955 7.05276 15.8058 7.09541C15.9161 7.13805 16.0163 7.20325 16.1 7.28683C16.1836 7.37041 16.2489 7.47052 16.2917 7.58078C16.3345 7.69104 16.3538 7.80901 16.3484 7.92714C16.3539 8.04537 16.3347 8.16344 16.292 8.27382C16.2493 8.3842 16.184 8.48444 16.1003 8.56812C16.0167 8.65181 15.9164 8.7171 15.806 8.75981C15.6957 8.80252 15.5776 8.82171 15.4594 8.81614H14.0594C14.2365 9.12296 14.3742 9.45088 14.4694 9.79215H15.4544C15.6901 9.79215 15.9163 9.88581 16.083 10.0525C16.2497 10.2192 16.3434 10.4454 16.3434 10.6811C16.3434 10.9169 16.2497 11.143 16.083 11.3098C15.9163 11.4765 15.6901 11.5701 15.4544 11.5701H14.4804C14.3249 12.2133 13.98 12.7951 13.4904 13.2401C13.1736 13.5801 12.7906 13.8516 12.3649 14.0381C11.9393 14.2245 11.48 14.3218 11.0154 14.3241L13.6354 16.9431C13.7197 17.0237 13.7868 17.1206 13.8327 17.2278C13.8786 17.3351 13.9022 17.4505 13.9022 17.5671C13.9022 17.6838 13.8786 17.7992 13.8327 17.9065C13.7868 18.0137 13.7197 18.1106 13.6354 18.1911C13.5561 18.2768 13.4596 18.3446 13.3522 18.3903C13.2448 18.436 13.129 18.4584 13.0124 18.4561" fill="#F23057" fill-opacity="0.8"/>
<path d="M20.6476 16.3321C20.4535 16.2307 20.2286 16.2052 20.0167 16.2607C19.8048 16.3162 19.6212 16.4485 19.5016 16.6321C18.6281 18.0421 17.3738 19.1765 15.8835 19.9045C14.3931 20.6326 12.7273 20.9246 11.0782 20.7469C9.42904 20.5692 7.8637 19.929 6.56264 18.9002C5.26157 17.8714 4.27777 16.4958 3.72464 14.9321H3.88464C4.01959 14.9321 4.15218 14.8967 4.26906 14.8292C4.38593 14.7617 4.48297 14.6647 4.55039 14.5478C4.61782 14.4309 4.65324 14.2983 4.65311 14.1633C4.65298 14.0284 4.61729 13.8958 4.54964 13.7791L3.91664 12.6971L3.27964 11.5971C3.21209 11.4808 3.11521 11.3844 2.99869 11.3173C2.88216 11.2503 2.75008 11.215 2.61564 11.215C2.48121 11.215 2.34912 11.2503 2.2326 11.3173C2.11608 11.3844 2.0192 11.4808 1.95164 11.5971L1.31664 12.6971L0.679643 13.7831C0.612035 13.8997 0.576348 14.0322 0.576173 14.1671C0.575997 14.3019 0.611339 14.4345 0.678644 14.5513C0.745948 14.6682 0.842842 14.7653 0.959578 14.8328C1.07631 14.9004 1.20878 14.936 1.34364 14.9361H1.84364C2.47695 17.142 3.80981 19.0825 5.64151 20.4653C7.47322 21.8481 9.7046 22.5983 11.9996 22.6031C13.7982 22.6015 15.5671 22.1441 17.141 21.2736C18.7149 20.4031 20.0425 19.1478 20.9996 17.6251C21.0671 17.5184 21.1115 17.3988 21.1301 17.274C21.1488 17.1492 21.1411 17.0219 21.1077 16.9002C21.0743 16.7785 21.0158 16.6651 20.9361 16.5673C20.8564 16.4694 20.7571 16.3893 20.6446 16.3321" fill="#F23057" fill-opacity="0.8"/>
<path d="M22.6503 9.35009H22.2793C21.7611 7.34473 20.6667 5.53512 19.1314 4.14485C17.5961 2.75458 15.6871 1.84456 13.6404 1.52724C11.5936 1.20992 9.49867 1.4992 7.61447 2.35933C5.73028 3.21947 4.13936 4.61277 3.03828 6.36709C2.97015 6.47398 2.92508 6.59392 2.90594 6.71923C2.88681 6.84455 2.89404 6.97247 2.92717 7.09483C2.9603 7.21719 3.0186 7.33128 3.09835 7.42982C3.17809 7.52836 3.27752 7.60917 3.39028 7.66709C3.58654 7.76804 3.81341 7.79212 4.02649 7.73459C4.23956 7.67707 4.42349 7.54209 4.54228 7.35609C5.42861 5.92576 6.70698 4.78 8.22545 4.05499C9.74392 3.32998 11.4386 3.05621 13.1082 3.26621C14.7777 3.47622 16.3518 4.16117 17.6434 5.23966C18.935 6.31815 19.8898 7.74482 20.3943 9.35009H20.1143C19.9802 9.35061 19.8486 9.38621 19.7326 9.45337C19.6165 9.52052 19.5201 9.61689 19.4528 9.73287C19.3856 9.84886 19.3499 9.98044 19.3493 10.1145C19.3486 10.2486 19.3831 10.3805 19.4493 10.4971L20.0793 11.5971L20.7153 12.6971C20.7826 12.8136 20.8794 12.9103 20.996 12.9775C21.1125 13.0448 21.2447 13.0802 21.3793 13.0802C21.5138 13.0802 21.646 13.0448 21.7626 12.9775C21.8791 12.9103 21.9759 12.8136 22.0433 12.6971L22.6793 11.5971L23.3143 10.4971C23.382 10.3805 23.4177 10.2481 23.4179 10.1132C23.4181 9.97839 23.3828 9.84589 23.3154 9.72907C23.2481 9.61225 23.1512 9.51524 23.0344 9.44783C22.9176 9.38041 22.7851 9.34498 22.6503 9.34509" fill="#F23057" fill-opacity="0.8"/>
</g>
<defs>
<clipPath id="clip0_88_5144">
<rect width="24" height="24" fill="white"/>
</clipPath>
</defs>
</svg>
