<svg width="24" height="24" viewBox="0 0 24 24" fill="none" xmlns="http://www.w3.org/2000/svg">
<path fill-rule="evenodd" clip-rule="evenodd" d="M12.0004 2.60039C6.80891 2.60039 2.60039 6.80891 2.60039 12.0004C2.60039 17.1919 6.80891 21.4004 12.0004 21.4004C17.1919 21.4004 21.4004 17.1919 21.4004 12.0004C21.4004 6.80891 17.1919 2.60039 12.0004 2.60039ZM1.40039 12.0004C1.40039 6.14617 6.14617 1.40039 12.0004 1.40039C17.8546 1.40039 22.6004 6.14617 22.6004 12.0004C22.6004 17.8546 17.8546 22.6004 12.0004 22.6004C6.14617 22.6004 1.40039 17.8546 1.40039 12.0004Z" fill="#253844"/>
<path fill-rule="evenodd" clip-rule="evenodd" d="M9.26292 7.603C8.98192 7.42737 8.61175 7.5128 8.43612 7.7938L7.04723 10.016C6.93163 10.201 6.92551 10.4341 7.03125 10.6249C7.13698 10.8157 7.33792 10.934 7.55603 10.934H16.4449C16.7763 10.934 17.0449 10.6654 17.0449 10.334C17.0449 10.0027 16.7763 9.73402 16.4449 9.73402H8.63858L9.45372 8.4298C9.62935 8.1488 9.54392 7.77863 9.26292 7.603Z" fill="#253844"/>
<path fill-rule="evenodd" clip-rule="evenodd" d="M14.7371 16.398C15.0181 16.5736 15.3883 16.4882 15.5639 16.2072L16.9528 13.985C17.0684 13.8 17.0745 13.5669 16.9688 13.3761C16.863 13.1853 16.6621 13.067 16.444 13.067H7.55508C7.22371 13.067 6.95508 13.3356 6.95508 13.667C6.95508 13.9983 7.22371 14.267 7.55508 14.267H15.3614L14.5463 15.5712C14.3707 15.8522 14.4561 16.2224 14.7371 16.398Z" fill="#253844"/>
</svg>
