<svg width="25" height="24" viewBox="0 0 25 24" fill="none" xmlns="http://www.w3.org/2000/svg">
<g clip-path="url(#clip0_64_3845)">
<path d="M19.1788 19.913C17.3537 19.8975 15.5576 19.4543 13.9348 18.619C12.2016 17.7575 10.6197 16.6204 9.25084 15.2519C7.87577 13.8873 6.73544 12.3051 5.87584 10.569C5.04201 8.94702 4.59889 7.15262 4.58184 5.32898C4.5782 5.16532 4.60807 5.00263 4.66964 4.85095C4.73121 4.69927 4.82316 4.56178 4.93983 4.44696C5.05466 4.33028 5.19214 4.23832 5.34382 4.17675C5.4955 4.11519 5.65818 4.08534 5.82184 4.08899H8.78484C9.08446 4.07963 9.3774 4.17869 9.60984 4.36798C9.84519 4.57599 10.0022 4.8583 10.0548 5.16797L10.6258 7.64294C10.6789 7.90481 10.6741 8.17517 10.6118 8.43499C10.5519 8.65992 10.4258 8.86162 10.2498 9.01397L8.08584 11.08C8.77594 12.2141 9.59763 13.2627 10.5338 14.204C11.4245 15.0877 12.4343 15.8426 13.5338 16.447L15.6038 14.337C15.7886 14.1386 16.0194 13.9889 16.2758 13.901C16.5302 13.8211 16.8018 13.8141 17.0598 13.881L19.3268 14.407C19.638 14.4755 19.9186 14.6428 20.1268 14.884C20.3224 15.1285 20.4238 15.4351 20.4128 15.748V18.665C20.4174 18.8305 20.3879 18.9953 20.3264 19.149C20.2648 19.3028 20.1724 19.4423 20.0548 19.559C19.9404 19.6742 19.8037 19.765 19.6531 19.8258C19.5026 19.8867 19.3412 19.9163 19.1788 19.913ZM7.24784 9.578L8.94784 7.92596L8.47284 5.76495H6.27984C6.27122 6.33509 6.34258 6.90365 6.49184 7.45398C6.6884 8.1805 6.94116 8.89067 7.24784 9.578ZM18.7298 18.2129V15.996L16.7298 15.564L15.0818 17.285C15.6488 17.5552 16.2419 17.767 16.8518 17.917C17.4672 18.0742 18.096 18.1733 18.7298 18.2129Z" fill="#253844"/>
</g>
<defs>
<clipPath id="clip0_64_3845">
<rect width="24" height="24" fill="white" transform="translate(0.5)"/>
</clipPath>
</defs>
</svg>
