<svg width="12" height="12" viewBox="0 0 12 12" fill="none" xmlns="http://www.w3.org/2000/svg">
<g clip-path="url(#clip0_64_3225)">
<path d="M4.29999 9.53247C4.34875 9.58134 4.40669 9.62009 4.47046 9.64655C4.53423 9.673 4.60256 9.68665 4.6716 9.68665C4.74064 9.68665 4.80897 9.673 4.87274 9.64655C4.93651 9.62009 4.99445 9.58134 5.04321 9.53247L7.84299 6.72299C7.94061 6.62548 8.01802 6.5097 8.07086 6.38223C8.1237 6.25476 8.15088 6.11812 8.15088 5.98013C8.15088 5.84215 8.1237 5.7055 8.07086 5.57803C8.01802 5.45057 7.94061 5.33479 7.84299 5.23727L5.01923 2.42249C4.97042 2.37368 4.91252 2.33501 4.84875 2.30859C4.78499 2.28218 4.71663 2.26859 4.64761 2.26859C4.5786 2.26859 4.51024 2.28218 4.44647 2.30859C4.38271 2.33501 4.3248 2.37368 4.276 2.42249C4.2272 2.47129 4.18843 2.52919 4.16202 2.59296C4.13561 2.65672 4.12201 2.72508 4.12201 2.7941C4.12201 2.86311 4.13561 2.93148 4.16202 2.99524C4.18843 3.059 4.2272 3.11691 4.276 3.16571L6.86795 5.74951C6.89834 5.77982 6.92245 5.8158 6.9389 5.85544C6.95535 5.89508 6.96381 5.93758 6.96381 5.9805C6.96381 6.02342 6.95535 6.06592 6.9389 6.10556C6.92245 6.1452 6.89834 6.18118 6.86795 6.21149L4.29926 8.79602C4.20271 8.89432 4.1486 9.02664 4.14874 9.16443C4.14888 9.30221 4.20324 9.43436 4.29999 9.53247Z" fill="black" fill-opacity="0.6"/>
</g>
<defs>
<clipPath id="clip0_64_3225">
<rect width="12" height="12" fill="white" transform="matrix(0 -1 1 0 0 12)"/>
</clipPath>
</defs>
</svg>
