<svg width="24" height="24" viewBox="0 0 24 24" fill="none" xmlns="http://www.w3.org/2000/svg">
<path d="M14.8079 13.0479C15.0891 12.7666 15.2471 12.3852 15.2471 11.9874C15.2471 11.5897 15.0891 11.2082 14.8079 10.9269L14.559 10.6789L10.3389 6.45892C10.1655 6.2856 9.93053 6.18823 9.68542 6.18823C9.44031 6.18823 9.20518 6.2856 9.03186 6.45892C8.85854 6.63224 8.76123 6.86732 8.76123 7.11243C8.76123 7.35754 8.85854 7.59261 9.03186 7.76593L12.882 11.6169C12.9803 11.7155 13.0355 11.8491 13.0355 11.9884C13.0355 12.1277 12.9803 12.2613 12.882 12.3599L9.03687 16.2099C8.8597 16.3783 8.7564 16.61 8.74951 16.8543C8.74263 17.0986 8.83272 17.3357 9.00012 17.5139C9.16753 17.692 9.39865 17.7966 9.64294 17.8049C9.88723 17.8131 10.1249 17.7243 10.304 17.5579C10.318 17.5449 10.332 17.5309 10.345 17.5169L14.5609 13.296L14.8079 13.0479Z" fill="#C0C2C4"/>
</svg>
