<svg width="10" height="28" viewBox="0 0 10 28" fill="none" xmlns="http://www.w3.org/2000/svg">
<path d="M9.26758 10.4824L8.94531 11.5176H0.507812L0.820312 10.4824H9.26758ZM6.35742 21L1.30859 14.9941L1.29883 14.125H2.8418C3.59701 14.125 4.22201 13.9818 4.7168 13.6953C5.21159 13.4089 5.58594 13.0312 5.83984 12.5625C6.09375 12.0938 6.2207 11.5892 6.2207 11.0488C6.2207 10.3978 6.08073 9.83138 5.80078 9.34961C5.52083 8.86784 5.11068 8.49349 4.57031 8.22656C4.02995 7.95312 3.36589 7.81641 2.57812 7.81641H0.654297L0.986328 6.78125H2.57812C3.59375 6.78125 4.46289 6.95052 5.18555 7.28906C5.9082 7.62109 6.45833 8.10612 6.83594 8.74414C7.22005 9.38216 7.41211 10.1536 7.41211 11.0586C7.41211 11.7943 7.25911 12.4746 6.95312 13.0996C6.65365 13.7181 6.17513 14.2161 5.51758 14.5938C4.86654 14.9648 4.01042 15.1504 2.94922 15.1504L7.74414 20.873V21H6.35742ZM9.26758 6.78125L8.94531 7.81641H1.37695L1.69922 6.78125H9.26758Z" fill="black" fill-opacity="0.87"/>
</svg>
