<svg width="24" height="24" viewBox="0 0 24 24" fill="none" xmlns="http://www.w3.org/2000/svg">
<path d="M15.583 11.0001C18.1101 11.0001 20.1669 13.056 20.167 15.5831C20.167 16.5988 19.8338 17.5383 19.2725 18.2989L21.7998 20.8253C22.0683 21.0938 22.0681 21.5293 21.7998 21.7979C21.6651 21.9327 21.4885 22.0001 21.3125 22.0001C21.1366 22 20.9609 21.9326 20.8271 21.7979L18.2998 19.2715C17.539 19.8334 16.5992 20.1671 15.583 20.1671C13.0559 20.1669 11 18.1102 11 15.5831C11.0001 13.0561 13.056 11.0002 15.583 11.0001ZM15.583 12.3751C13.8141 12.3752 12.3751 13.8141 12.375 15.5831C12.375 17.3521 13.814 18.7919 15.583 18.7921C16.4559 18.7921 17.2472 18.4396 17.8262 17.8721C17.8336 17.864 17.8398 17.8546 17.8477 17.8467C17.8551 17.8393 17.8644 17.8333 17.8721 17.8262C18.4396 17.2472 18.792 16.456 18.792 15.5831C18.7919 13.814 17.3521 12.3751 15.583 12.3751Z" fill="#253844"/>
<path d="M9.72433 18.7501H5.0625C3.92475 18.7501 3 17.8253 3 16.6876V5.06256C3 3.92481 3.92475 3.00006 5.0625 3.00006H13.6875C14.8252 3.00006 15.75 3.92481 15.75 5.06256V9.16993C15.75 9.48043 15.498 9.73243 15.1875 9.73243C14.877 9.73243 14.625 9.48043 14.625 9.16993V5.06256C14.625 4.54581 14.2043 4.12506 13.6875 4.12506H5.0625C4.54575 4.12506 4.125 4.54581 4.125 5.06256V16.6876C4.125 17.2043 4.54575 17.6251 5.0625 17.6251H9.72433C10.0348 17.6251 10.2868 17.8771 10.2868 18.1876C10.2868 18.4981 10.0348 18.7501 9.72433 18.7501Z" fill="#253844"/>
<path d="M12 10.1251H5.8125C5.502 10.1251 5.25 9.87306 5.25 9.56256C5.25 9.25206 5.502 9.00006 5.8125 9.00006H12C12.3105 9.00006 12.5625 9.25206 12.5625 9.56256C12.5625 9.87306 12.3105 10.1251 12 10.1251Z" fill="#253844"/>
<path d="M9.9375 13.1251H5.8125C5.502 13.1251 5.25 12.8731 5.25 12.5626C5.25 12.2521 5.502 12.0001 5.8125 12.0001H9.9375C10.248 12.0001 10.5 12.2521 10.5 12.5626C10.5 12.8731 10.248 13.1251 9.9375 13.1251Z" fill="#253844"/>
<path d="M9.1875 7.12506H5.8125C5.502 7.12506 5.25 6.87306 5.25 6.56256C5.25 6.25206 5.502 6.00006 5.8125 6.00006H9.1875C9.498 6.00006 9.75 6.25206 9.75 6.56256C9.75 6.87306 9.498 7.12506 9.1875 7.12506Z" fill="#253844"/>
</svg>
