<svg width="24" height="24" viewBox="0 0 24 24" fill="none" xmlns="http://www.w3.org/2000/svg">
<path d="M20.0326 11.8322H16.4558C15.3287 11.8322 14.415 10.9185 14.415 9.79146C14.415 8.6644 15.3287 7.75073 16.4558 7.75073H20.0326V11.8322Z" stroke="#253844" stroke-width="1.2" stroke-miterlimit="10" stroke-linecap="round" stroke-linejoin="round"/>
<path d="M19.3799 7.67556V5.58071C19.3799 4.15541 18.2244 3 16.7992 3H6.54946C5.12416 3 3.96875 4.15541 3.96875 5.58071V12.9256" stroke="#253844" stroke-width="1.2" stroke-miterlimit="10" stroke-linecap="round" stroke-linejoin="round"/>
<path d="M16.2222 16.5812H16.8007C18.226 16.5812 19.3814 15.4258 19.3814 14.0005V11.9707" stroke="#253844" stroke-width="1.2" stroke-miterlimit="10" stroke-linecap="round" stroke-linejoin="round"/>
<path d="M9.43489 14.2703V16.5133L10.9303 18.0087M4.94873 16.5133C4.94873 18.991 6.95726 20.9995 9.43489 20.9995C11.9125 20.9995 13.9211 18.991 13.9211 16.5133C13.9211 14.0357 11.9125 12.0272 9.43489 12.0272C6.95726 12.0272 4.94873 14.0357 4.94873 16.5133Z" stroke="#253844" stroke-width="1.2" stroke-miterlimit="10" stroke-linecap="round" stroke-linejoin="round"/>
</svg>
