<svg width="24" height="24" viewBox="0 0 24 24" fill="none" xmlns="http://www.w3.org/2000/svg">
<path d="M18.7241 9.76049C18.7241 13.473 15.7145 16.4827 12.002 16.4827C8.28941 16.4827 5.27979 13.473 5.27979 9.76049C5.27979 6.04795 8.28941 3.00097 12.002 3.00097C15.7145 3.00097 18.7241 6.04795 18.7241 9.76049Z" stroke="#253844" stroke-width="1.2" stroke-miterlimit="10" stroke-linecap="round" stroke-linejoin="round"/>
<path d="M17.1333 14.1045L19.3728 19.1807L16.4849 18.2001L15.2776 21.0007L13.2358 16.3695" stroke="#253844" stroke-width="1.2" stroke-miterlimit="10" stroke-linecap="round" stroke-linejoin="round"/>
<path d="M10.7708 16.3695L8.72901 21.0007L7.52167 18.2001L4.63379 19.1807L6.87328 14.1045" stroke="#253844" stroke-width="1.2" stroke-miterlimit="10" stroke-linecap="round" stroke-linejoin="round"/>
<path d="M12.0015 6.68811L12.717 8.89014H15.0324L13.1592 10.2511L13.8747 12.4531L12.0015 11.0922L10.1283 12.4531L10.8439 10.2511L8.9707 8.89014H11.2861L12.0015 6.68811Z" stroke="#253844" stroke-linejoin="round"/>
</svg>
