<svg width="13" height="12" viewBox="0 0 13 12" fill="none" xmlns="http://www.w3.org/2000/svg">
<g clip-path="url(#clip0_64_3857)">
<path fill-rule="evenodd" clip-rule="evenodd" d="M6.49789 2.53131C6.45684 2.52955 6.41615 2.53965 6.38069 2.5604C6.34522 2.58114 6.31648 2.61166 6.29789 2.64831L5.47389 4.27931C5.40779 4.40715 5.312 4.51727 5.19455 4.60044C5.0771 4.68361 4.94142 4.7374 4.79889 4.75731L2.94689 5.02031C2.90665 5.02469 2.86853 5.04062 2.83713 5.06617C2.80572 5.09172 2.78237 5.1258 2.76989 5.16431C2.75828 5.20061 2.75729 5.23948 2.76704 5.27633C2.77678 5.31318 2.79685 5.34648 2.82489 5.37231L4.16389 6.64131C4.26838 6.73944 4.34685 6.86201 4.39223 6.99798C4.43762 7.13396 4.4485 7.27908 4.42389 7.42031L4.10889 9.21131C4.10207 9.24909 4.10626 9.28804 4.12098 9.32351C4.1357 9.35898 4.16032 9.38945 4.19189 9.41131C4.22516 9.43627 4.26491 9.45114 4.30639 9.45416C4.34788 9.45717 4.38936 9.4482 4.42589 9.42831L6.08089 8.58231C6.2098 8.51687 6.35232 8.48276 6.49689 8.48276C6.64146 8.48276 6.78398 8.51687 6.91289 8.58231L8.56789 9.42831C8.60468 9.44793 8.64626 9.45674 8.68785 9.45374C8.72943 9.45073 8.76931 9.43602 8.80289 9.41131C8.83446 9.38945 8.85908 9.35898 8.8738 9.32351C8.88852 9.28804 8.89271 9.24909 8.88589 9.21131L8.57089 7.42031C8.54629 7.27908 8.55716 7.13396 8.60255 6.99798C8.64793 6.86201 8.7264 6.73944 8.83089 6.64131L10.1699 5.37231C10.1986 5.34693 10.2191 5.31364 10.2289 5.27663C10.2387 5.23962 10.2373 5.20053 10.2249 5.16431C10.2126 5.12587 10.1894 5.09183 10.1582 5.06627C10.127 5.04072 10.089 5.02476 10.0489 5.02031L8.19589 4.76131C8.05354 4.74125 7.91806 4.68739 7.80079 4.60423C7.68353 4.52106 7.58789 4.41102 7.52189 4.28331L6.69389 2.65331C6.6764 2.61628 6.64861 2.58509 6.61385 2.56345C6.57909 2.54181 6.53883 2.53065 6.49789 2.53131ZM4.32189 10.1243C4.13089 10.1243 3.94475 10.0641 3.78989 9.95231C3.65634 9.85773 3.55243 9.72714 3.49028 9.57576C3.42814 9.42437 3.41031 9.25844 3.43889 9.09731L3.75389 7.30631C3.75962 7.27344 3.75705 7.23967 3.74639 7.20805C3.73574 7.17644 3.71735 7.14799 3.69289 7.12531L2.35489 5.85631C2.23403 5.74431 2.14798 5.59988 2.10702 5.44028C2.06605 5.28068 2.07191 5.11266 2.12389 4.95631C2.17615 4.7981 2.27201 4.65785 2.40045 4.55171C2.52888 4.44556 2.68467 4.37783 2.84989 4.35631L4.70189 4.09331C4.73651 4.08889 4.76953 4.07611 4.7981 4.05607C4.82667 4.03604 4.84994 4.00935 4.86589 3.97831L5.69389 2.34731C5.7706 2.20039 5.8861 2.0773 6.02784 1.99141C6.16959 1.90552 6.33215 1.86011 6.49789 1.86011C6.66363 1.86011 6.8262 1.90552 6.96794 1.99141C7.10968 2.0773 7.22518 2.20039 7.30189 2.34731L8.12989 3.97831C8.14584 4.00935 8.16911 4.03604 8.19768 4.05607C8.22625 4.07611 8.25927 4.08889 8.29389 4.09331L10.1459 4.35631C10.3111 4.37783 10.4669 4.44556 10.5953 4.55171C10.7238 4.65785 10.8196 4.7981 10.8719 4.95631C10.9239 5.11266 10.9297 5.28068 10.8888 5.44028C10.8478 5.59988 10.7617 5.74431 10.6409 5.85631L9.30089 7.12431C9.27643 7.14699 9.25804 7.17544 9.24739 7.20705C9.23673 7.23867 9.23416 7.27244 9.23989 7.30531L9.55589 9.09731C9.58436 9.25853 9.56638 9.42453 9.50406 9.57592C9.44173 9.72732 9.33762 9.85786 9.20389 9.95231C9.06815 10.0516 8.90728 10.1109 8.73954 10.1235C8.5718 10.136 8.4039 10.1013 8.25489 10.0233L6.60089 9.17731C6.56883 9.16097 6.53337 9.15246 6.49739 9.15246C6.46141 9.15246 6.42595 9.16097 6.39389 9.17731L4.73889 10.0233C4.6099 10.0897 4.46694 10.1243 4.32189 10.1243Z" fill="#FFA64D"/>
</g>
<defs>
<clipPath id="clip0_64_3857">
<rect width="12" height="12" fill="white" transform="translate(0.5)"/>
</clipPath>
</defs>
</svg>
