<svg width="13" height="12" viewBox="0 0 13 12" fill="none" xmlns="http://www.w3.org/2000/svg">
<path d="M6.49953 8.70208L4.46934 9.92509C4.37965 9.98217 4.28589 10.0066 4.18805 9.99847C4.09021 9.99032 4.00459 9.95771 3.93121 9.90063C3.85783 9.84356 3.80076 9.77213 3.75999 9.68636C3.71923 9.60059 3.71107 9.50487 3.73553 9.3992L4.27366 7.08771L2.47583 5.53449C2.3943 5.46111 2.34342 5.37746 2.3232 5.28353C2.30298 5.1896 2.30902 5.09796 2.3413 5.0086C2.37392 4.91891 2.42284 4.84553 2.48806 4.78846C2.55329 4.73138 2.64298 4.69469 2.75713 4.67839L5.12976 4.47048L6.04702 2.29352C6.08778 2.19568 6.15106 2.1223 6.23683 2.07338C6.3226 2.02446 6.41017 2 6.49953 2C6.58922 2 6.67679 2.02446 6.76223 2.07338C6.84768 2.1223 6.91095 2.19568 6.95204 2.29352L7.8693 4.47048L10.2419 4.67839C10.3561 4.69469 10.4458 4.73138 10.511 4.78846C10.5762 4.84553 10.6251 4.91891 10.6578 5.0086C10.6904 5.09829 10.6966 5.19009 10.6763 5.28402C10.6561 5.37795 10.6051 5.46144 10.5232 5.53449L8.7254 7.08771L9.26353 9.3992C9.28799 9.50519 9.27984 9.60108 9.23907 9.68685C9.1983 9.77262 9.14123 9.84389 9.06785 9.90063C8.99447 9.95771 8.90886 9.99032 8.81102 9.99847C8.71317 10.0066 8.61941 9.98217 8.52972 9.92509L6.49953 8.70208Z" fill="#FFA64D"/>
</svg>
