<svg width="24" height="24" viewBox="0 0 24 24" fill="none" xmlns="http://www.w3.org/2000/svg">
<path d="M15.259 3.99902H8.74002C6.37602 3.99902 4.99902 5.42302 4.99902 7.86302V16.127C4.99902 18.607 6.37602 19.999 8.74002 19.999H15.259C17.659 19.999 18.999 18.607 18.999 16.127V7.86302C18.999 5.42302 17.661 3.99902 15.259 3.99902Z" stroke="#253844" stroke-width="1.2"/>
<path d="M8.98598 7.73291V7.74091C8.82049 7.74091 8.66177 7.80665 8.54475 7.92368C8.42772 8.0407 8.36198 8.19942 8.36198 8.36491C8.36198 8.53041 8.42772 8.68912 8.54475 8.80614C8.66177 8.92317 8.82049 8.98891 8.98598 8.98891H11.311C11.4775 8.98891 11.6373 8.92275 11.755 8.80497C11.8728 8.6872 11.939 8.52747 11.939 8.36091C11.939 8.19435 11.8728 8.03462 11.755 7.91685C11.6373 7.79907 11.4775 7.73291 11.311 7.73291H8.98598ZM15.086 12.6049H8.98598C8.82468 12.5985 8.67213 12.5298 8.56028 12.4134C8.44844 12.297 8.38598 12.1418 8.38598 11.9804C8.38598 11.819 8.44844 11.6638 8.56028 11.5474C8.67213 11.431 8.82468 11.3624 8.98598 11.3559H15.086C15.2473 11.3624 15.3998 11.431 15.5117 11.5474C15.6235 11.6638 15.686 11.819 15.686 11.9804C15.686 12.1418 15.6235 12.297 15.5117 12.4134C15.3998 12.5298 15.2473 12.5985 15.086 12.6049ZM15.086 16.2609H8.98598C8.8714 16.274 8.75548 16.2538 8.65208 16.2027C8.54869 16.1517 8.4622 16.0719 8.40298 15.9729C8.34187 15.8715 8.30957 15.7553 8.30957 15.6369C8.30957 15.5185 8.34187 15.4023 8.40298 15.3009C8.46058 15.1997 8.54636 15.1175 8.64988 15.0642C8.7534 15.011 8.87018 14.989 8.98598 15.0009H15.086C15.2376 15.0219 15.3765 15.0971 15.477 15.2125C15.5776 15.3279 15.633 15.4758 15.633 15.6289C15.633 15.782 15.5776 15.9299 15.477 16.0453C15.3765 16.1607 15.2376 16.2359 15.086 16.2569V16.2609Z" fill="#253844"/>
</svg>
