<svg width="14" height="14" viewBox="0 0 14 14" fill="none" xmlns="http://www.w3.org/2000/svg">
<g clip-path="url(#clip0_64_3168)">
<path d="M3.46765 8.70026C3.41878 8.65149 3.38003 8.59355 3.35358 8.52979C3.32712 8.46602 3.31348 8.39768 3.31348 8.32864C3.31348 8.25961 3.32712 8.19127 3.35358 8.1275C3.38003 8.06373 3.41878 8.0058 3.46765 7.95703L6.27713 5.15726C6.37465 5.05963 6.49042 4.98222 6.61789 4.92938C6.74536 4.87654 6.882 4.84937 7.01999 4.84937C7.15798 4.84937 7.29462 4.87654 7.42209 4.92938C7.54956 4.98222 7.66533 5.05963 7.76285 5.15726L10.5776 7.98102C10.6264 8.02982 10.6651 8.08773 10.6915 8.15149C10.7179 8.21525 10.7315 8.28361 10.7315 8.35263C10.7315 8.42165 10.7179 8.49001 10.6915 8.55377C10.6651 8.61754 10.6264 8.67544 10.5776 8.72424C10.5288 8.77305 10.4709 8.81181 10.4072 8.83823C10.3434 8.86464 10.275 8.87823 10.206 8.87823C10.137 8.87823 10.0686 8.86464 10.0049 8.83823C9.94112 8.81181 9.88321 8.77305 9.83441 8.72424L7.25061 6.13229C7.2203 6.10191 7.18432 6.07779 7.14468 6.06134C7.10504 6.04489 7.06254 6.03644 7.01962 6.03644C6.97671 6.03644 6.9342 6.04489 6.89456 6.06134C6.85492 6.07779 6.81894 6.10191 6.78864 6.13229L4.2041 8.70099C4.1058 8.79753 3.97348 8.85164 3.83569 8.8515C3.69791 8.85136 3.56576 8.797 3.46765 8.70026Z" fill="black" fill-opacity="0.6"/>
</g>
<defs>
<clipPath id="clip0_64_3168">
<rect width="12" height="12" fill="white" transform="matrix(1 0 0 -1 1 13)"/>
</clipPath>
</defs>
</svg>
