<svg width="24" height="24" viewBox="0 0 24 24" fill="none" xmlns="http://www.w3.org/2000/svg">
<path d="M16.2454 10.475C16.1087 10.337 15.9524 10.2681 15.757 10.2681C15.5617 10.2681 15.4054 10.337 15.2686 10.475C15.1319 10.613 15.0635 10.7707 15.0635 10.9678C15.0635 11.1649 15.1319 11.3225 15.2686 11.4605C15.4054 11.5985 15.5714 11.6675 15.757 11.6675C15.9524 11.6675 16.1087 11.5985 16.2454 11.4605C16.3822 11.3225 16.4506 11.155 16.4506 10.9678C16.4506 10.7707 16.3822 10.613 16.2454 10.475ZM16.2454 7.55798C16.1087 7.42001 15.9524 7.35103 15.757 7.35103C15.5617 7.35103 15.4054 7.42001 15.2686 7.55798C15.1319 7.69595 15.0635 7.85362 15.0635 8.05072C15.0635 8.24782 15.1319 8.4055 15.2686 8.54346C15.4054 8.68143 15.5714 8.75042 15.757 8.75042C15.9524 8.75042 16.1087 8.68143 16.2454 8.54346C16.3822 8.4055 16.4506 8.23796 16.4506 8.05072C16.4506 7.85362 16.3822 7.69595 16.2454 7.55798ZM13.4518 10.5736C13.3443 10.4652 13.2173 10.406 13.0611 10.406H8.99756C8.84127 10.406 8.71429 10.4652 8.60684 10.5736C8.48962 10.6918 8.44078 10.8199 8.44078 10.9776C8.44078 11.1353 8.48962 11.2634 8.60684 11.3718C8.71429 11.4901 8.84127 11.5393 8.99756 11.5393H13.0611C13.2173 11.5393 13.3443 11.4901 13.4518 11.3718C13.5592 11.2634 13.6178 11.1353 13.6178 10.9776C13.6178 10.8199 13.5592 10.6918 13.4518 10.5736ZM13.4518 7.64667C13.3443 7.53827 13.2173 7.48899 13.0611 7.48899H8.99756C8.84127 7.48899 8.71429 7.53827 8.60684 7.64667C8.48962 7.76493 8.44078 7.89304 8.44078 8.05072C8.44078 8.2084 8.48962 8.33651 8.60684 8.45477C8.71429 8.56317 8.84127 8.61245 8.99756 8.61245H13.0611C13.2173 8.61245 13.3443 8.56317 13.4518 8.45477C13.5592 8.33651 13.6178 8.2084 13.6178 8.05072C13.6178 7.89304 13.5592 7.76493 13.4518 7.64667ZM16.2454 7.55798C16.1087 7.42001 15.9524 7.35103 15.757 7.35103C15.5617 7.35103 15.4054 7.42001 15.2686 7.55798C15.1319 7.69595 15.0635 7.85362 15.0635 8.05072C15.0635 8.24782 15.1319 8.4055 15.2686 8.54346C15.4054 8.68143 15.5714 8.75042 15.757 8.75042C15.9524 8.75042 16.1087 8.68143 16.2454 8.54346C16.3822 8.4055 16.4506 8.23796 16.4506 8.05072C16.4506 7.85362 16.3822 7.69595 16.2454 7.55798ZM16.2454 10.475C16.1087 10.337 15.9524 10.2681 15.757 10.2681C15.5617 10.2681 15.4054 10.337 15.2686 10.475C15.1319 10.613 15.0635 10.7707 15.0635 10.9678C15.0635 11.1649 15.1319 11.3225 15.2686 11.4605C15.4054 11.5985 15.5714 11.6675 15.757 11.6675C15.9524 11.6675 16.1087 11.5985 16.2454 11.4605C16.3822 11.3225 16.4506 11.155 16.4506 10.9678C16.4506 10.7707 16.3822 10.613 16.2454 10.475ZM13.4518 7.64667C13.3443 7.53827 13.2173 7.48899 13.0611 7.48899H8.99756C8.84127 7.48899 8.71429 7.53827 8.60684 7.64667C8.48962 7.76493 8.44078 7.89304 8.44078 8.05072C8.44078 8.2084 8.48962 8.33651 8.60684 8.45477C8.71429 8.56317 8.84127 8.61245 8.99756 8.61245H13.0611C13.2173 8.61245 13.3443 8.56317 13.4518 8.45477C13.5592 8.33651 13.6178 8.2084 13.6178 8.05072C13.6178 7.89304 13.5592 7.76493 13.4518 7.64667ZM13.4518 10.5736C13.3443 10.4652 13.2173 10.406 13.0611 10.406H8.99756C8.84127 10.406 8.71429 10.4652 8.60684 10.5736C8.48962 10.6918 8.44078 10.8199 8.44078 10.9776C8.44078 11.1353 8.48962 11.2634 8.60684 11.3718C8.71429 11.4901 8.84127 11.5393 8.99756 11.5393H13.0611C13.2173 11.5393 13.3443 11.4901 13.4518 11.3718C13.5592 11.2634 13.6178 11.1353 13.6178 10.9776C13.6178 10.8199 13.5592 10.6918 13.4518 10.5736ZM13.4518 10.5736C13.3443 10.4652 13.2173 10.406 13.0611 10.406H8.99756C8.84127 10.406 8.71429 10.4652 8.60684 10.5736C8.48962 10.6918 8.44078 10.8199 8.44078 10.9776C8.44078 11.1353 8.48962 11.2634 8.60684 11.3718C8.71429 11.4901 8.84127 11.5393 8.99756 11.5393H13.0611C13.2173 11.5393 13.3443 11.4901 13.4518 11.3718C13.5592 11.2634 13.6178 11.1353 13.6178 10.9776C13.6178 10.8199 13.5592 10.6918 13.4518 10.5736ZM13.4518 7.64667C13.3443 7.53827 13.2173 7.48899 13.0611 7.48899H8.99756C8.84127 7.48899 8.71429 7.53827 8.60684 7.64667C8.48962 7.76493 8.44078 7.89304 8.44078 8.05072C8.44078 8.2084 8.48962 8.33651 8.60684 8.45477C8.71429 8.56317 8.84127 8.61245 8.99756 8.61245H13.0611C13.2173 8.61245 13.3443 8.56317 13.4518 8.45477C13.5592 8.33651 13.6178 8.2084 13.6178 8.05072C13.6178 7.89304 13.5592 7.76493 13.4518 7.64667ZM16.2454 10.475C16.1087 10.337 15.9524 10.2681 15.757 10.2681C15.5617 10.2681 15.4054 10.337 15.2686 10.475C15.1319 10.613 15.0635 10.7707 15.0635 10.9678C15.0635 11.1649 15.1319 11.3225 15.2686 11.4605C15.4054 11.5985 15.5714 11.6675 15.757 11.6675C15.9524 11.6675 16.1087 11.5985 16.2454 11.4605C16.3822 11.3225 16.4506 11.155 16.4506 10.9678C16.4506 10.7707 16.3822 10.613 16.2454 10.475ZM16.2454 7.55798C16.1087 7.42001 15.9524 7.35103 15.757 7.35103C15.5617 7.35103 15.4054 7.42001 15.2686 7.55798C15.1319 7.69595 15.0635 7.85362 15.0635 8.05072C15.0635 8.24782 15.1319 8.4055 15.2686 8.54346C15.4054 8.68143 15.5714 8.75042 15.757 8.75042C15.9524 8.75042 16.1087 8.68143 16.2454 8.54346C16.3822 8.4055 16.4506 8.23796 16.4506 8.05072C16.4506 7.85362 16.3822 7.69595 16.2454 7.55798ZM16.2454 7.55798C16.1087 7.42001 15.9524 7.35103 15.757 7.35103C15.5617 7.35103 15.4054 7.42001 15.2686 7.55798C15.1319 7.69595 15.0635 7.85362 15.0635 8.05072C15.0635 8.24782 15.1319 8.4055 15.2686 8.54346C15.4054 8.68143 15.5714 8.75042 15.757 8.75042C15.9524 8.75042 16.1087 8.68143 16.2454 8.54346C16.3822 8.4055 16.4506 8.23796 16.4506 8.05072C16.4506 7.85362 16.3822 7.69595 16.2454 7.55798ZM16.2454 10.475C16.1087 10.337 15.9524 10.2681 15.757 10.2681C15.5617 10.2681 15.4054 10.337 15.2686 10.475C15.1319 10.613 15.0635 10.7707 15.0635 10.9678C15.0635 11.1649 15.1319 11.3225 15.2686 11.4605C15.4054 11.5985 15.5714 11.6675 15.757 11.6675C15.9524 11.6675 16.1087 11.5985 16.2454 11.4605C16.3822 11.3225 16.4506 11.155 16.4506 10.9678C16.4506 10.7707 16.3822 10.613 16.2454 10.475ZM13.4518 7.64667C13.3443 7.53827 13.2173 7.48899 13.0611 7.48899H8.99756C8.84127 7.48899 8.71429 7.53827 8.60684 7.64667C8.48962 7.76493 8.44078 7.89304 8.44078 8.05072C8.44078 8.2084 8.48962 8.33651 8.60684 8.45477C8.71429 8.56317 8.84127 8.61245 8.99756 8.61245H13.0611C13.2173 8.61245 13.3443 8.56317 13.4518 8.45477C13.5592 8.33651 13.6178 8.2084 13.6178 8.05072C13.6178 7.89304 13.5592 7.76493 13.4518 7.64667ZM13.4518 10.5736C13.3443 10.4652 13.2173 10.406 13.0611 10.406H8.99756C8.84127 10.406 8.71429 10.4652 8.60684 10.5736C8.48962 10.6918 8.44078 10.8199 8.44078 10.9776C8.44078 11.1353 8.48962 11.2634 8.60684 11.3718C8.71429 11.4901 8.84127 11.5393 8.99756 11.5393H13.0611C13.2173 11.5393 13.3443 11.4901 13.4518 11.3718C13.5592 11.2634 13.6178 11.1353 13.6178 10.9776C13.6178 10.8199 13.5592 10.6918 13.4518 10.5736ZM13.4518 10.5736C13.3443 10.4652 13.2173 10.406 13.0611 10.406H8.99756C8.84127 10.406 8.71429 10.4652 8.60684 10.5736C8.48962 10.6918 8.44078 10.8199 8.44078 10.9776C8.44078 11.1353 8.48962 11.2634 8.60684 11.3718C8.71429 11.4901 8.84127 11.5393 8.99756 11.5393H13.0611C13.2173 11.5393 13.3443 11.4901 13.4518 11.3718C13.5592 11.2634 13.6178 11.1353 13.6178 10.9776C13.6178 10.8199 13.5592 10.6918 13.4518 10.5736ZM13.4518 7.64667C13.3443 7.53827 13.2173 7.48899 13.0611 7.48899H8.99756C8.84127 7.48899 8.71429 7.53827 8.60684 7.64667C8.48962 7.76493 8.44078 7.89304 8.44078 8.05072C8.44078 8.2084 8.48962 8.33651 8.60684 8.45477C8.71429 8.56317 8.84127 8.61245 8.99756 8.61245H13.0611C13.2173 8.61245 13.3443 8.56317 13.4518 8.45477C13.5592 8.33651 13.6178 8.2084 13.6178 8.05072C13.6178 7.89304 13.5592 7.76493 13.4518 7.64667ZM16.2454 10.475C16.1087 10.337 15.9524 10.2681 15.757 10.2681C15.5617 10.2681 15.4054 10.337 15.2686 10.475C15.1319 10.613 15.0635 10.7707 15.0635 10.9678C15.0635 11.1649 15.1319 11.3225 15.2686 11.4605C15.4054 11.5985 15.5714 11.6675 15.757 11.6675C15.9524 11.6675 16.1087 11.5985 16.2454 11.4605C16.3822 11.3225 16.4506 11.155 16.4506 10.9678C16.4506 10.7707 16.3822 10.613 16.2454 10.475ZM16.2454 7.55798C16.1087 7.42001 15.9524 7.35103 15.757 7.35103C15.5617 7.35103 15.4054 7.42001 15.2686 7.55798C15.1319 7.69595 15.0635 7.85362 15.0635 8.05072C15.0635 8.24782 15.1319 8.4055 15.2686 8.54346C15.4054 8.68143 15.5714 8.75042 15.757 8.75042C15.9524 8.75042 16.1087 8.68143 16.2454 8.54346C16.3822 8.4055 16.4506 8.23796 16.4506 8.05072C16.4506 7.85362 16.3822 7.69595 16.2454 7.55798ZM16.2454 7.55798C16.1087 7.42001 15.9524 7.35103 15.757 7.35103C15.5617 7.35103 15.4054 7.42001 15.2686 7.55798C15.1319 7.69595 15.0635 7.85362 15.0635 8.05072C15.0635 8.24782 15.1319 8.4055 15.2686 8.54346C15.4054 8.68143 15.5714 8.75042 15.757 8.75042C15.9524 8.75042 16.1087 8.68143 16.2454 8.54346C16.3822 8.4055 16.4506 8.23796 16.4506 8.05072C16.4506 7.85362 16.3822 7.69595 16.2454 7.55798ZM16.2454 10.475C16.1087 10.337 15.9524 10.2681 15.757 10.2681C15.5617 10.2681 15.4054 10.337 15.2686 10.475C15.1319 10.613 15.0635 10.7707 15.0635 10.9678C15.0635 11.1649 15.1319 11.3225 15.2686 11.4605C15.4054 11.5985 15.5714 11.6675 15.757 11.6675C15.9524 11.6675 16.1087 11.5985 16.2454 11.4605C16.3822 11.3225 16.4506 11.155 16.4506 10.9678C16.4506 10.7707 16.3822 10.613 16.2454 10.475ZM13.4518 7.64667C13.3443 7.53827 13.2173 7.48899 13.0611 7.48899H8.99756C8.84127 7.48899 8.71429 7.53827 8.60684 7.64667C8.48962 7.76493 8.44078 7.89304 8.44078 8.05072C8.44078 8.2084 8.48962 8.33651 8.60684 8.45477C8.71429 8.56317 8.84127 8.61245 8.99756 8.61245H13.0611C13.2173 8.61245 13.3443 8.56317 13.4518 8.45477C13.5592 8.33651 13.6178 8.2084 13.6178 8.05072C13.6178 7.89304 13.5592 7.76493 13.4518 7.64667ZM13.4518 10.5736C13.3443 10.4652 13.2173 10.406 13.0611 10.406H8.99756C8.84127 10.406 8.71429 10.4652 8.60684 10.5736C8.48962 10.6918 8.44078 10.8199 8.44078 10.9776C8.44078 11.1353 8.48962 11.2634 8.60684 11.3718C8.71429 11.4901 8.84127 11.5393 8.99756 11.5393H13.0611C13.2173 11.5393 13.3443 11.4901 13.4518 11.3718C13.5592 11.2634 13.6178 11.1353 13.6178 10.9776C13.6178 10.8199 13.5592 10.6918 13.4518 10.5736ZM13.4518 10.5736C13.3443 10.4652 13.2173 10.406 13.0611 10.406H8.99756C8.84127 10.406 8.71429 10.4652 8.60684 10.5736C8.48962 10.6918 8.44078 10.8199 8.44078 10.9776C8.44078 11.1353 8.48962 11.2634 8.60684 11.3718C8.71429 11.4901 8.84127 11.5393 8.99756 11.5393H13.0611C13.2173 11.5393 13.3443 11.4901 13.4518 11.3718C13.5592 11.2634 13.6178 11.1353 13.6178 10.9776C13.6178 10.8199 13.5592 10.6918 13.4518 10.5736ZM13.4518 7.64667C13.3443 7.53827 13.2173 7.48899 13.0611 7.48899H8.99756C8.84127 7.48899 8.71429 7.53827 8.60684 7.64667C8.48962 7.76493 8.44078 7.89304 8.44078 8.05072C8.44078 8.2084 8.48962 8.33651 8.60684 8.45477C8.71429 8.56317 8.84127 8.61245 8.99756 8.61245H13.0611C13.2173 8.61245 13.3443 8.56317 13.4518 8.45477C13.5592 8.33651 13.6178 8.2084 13.6178 8.05072C13.6178 7.89304 13.5592 7.76493 13.4518 7.64667ZM16.2454 10.475C16.1087 10.337 15.9524 10.2681 15.757 10.2681C15.5617 10.2681 15.4054 10.337 15.2686 10.475C15.1319 10.613 15.0635 10.7707 15.0635 10.9678C15.0635 11.1649 15.1319 11.3225 15.2686 11.4605C15.4054 11.5985 15.5714 11.6675 15.757 11.6675C15.9524 11.6675 16.1087 11.5985 16.2454 11.4605C16.3822 11.3225 16.4506 11.155 16.4506 10.9678C16.4506 10.7707 16.3822 10.613 16.2454 10.475ZM16.2454 7.55798C16.1087 7.42001 15.9524 7.35103 15.757 7.35103C15.5617 7.35103 15.4054 7.42001 15.2686 7.55798C15.1319 7.69595 15.0635 7.85362 15.0635 8.05072C15.0635 8.24782 15.1319 8.4055 15.2686 8.54346C15.4054 8.68143 15.5714 8.75042 15.757 8.75042C15.9524 8.75042 16.1087 8.68143 16.2454 8.54346C16.3822 8.4055 16.4506 8.23796 16.4506 8.05072C16.4506 7.85362 16.3822 7.69595 16.2454 7.55798ZM15.757 8.75042C15.9524 8.75042 16.1087 8.68143 16.2454 8.54346C16.3822 8.4055 16.4506 8.23796 16.4506 8.05072C16.4506 7.85362 16.3822 7.69595 16.2454 7.55798C16.1087 7.42001 15.9524 7.35103 15.757 7.35103C15.5617 7.35103 15.4054 7.42001 15.2686 7.55798C15.1319 7.69595 15.0635 7.85362 15.0635 8.05072C15.0635 8.24782 15.1319 8.4055 15.2686 8.54346C15.4054 8.68143 15.5714 8.75042 15.757 8.75042ZM15.757 10.2681C15.5714 10.2681 15.4054 10.337 15.2686 10.475C15.1319 10.613 15.0635 10.7707 15.0635 10.9678C15.0635 11.1649 15.1319 11.3225 15.2686 11.4605C15.4054 11.5985 15.5714 11.6675 15.757 11.6675C15.9524 11.6675 16.1087 11.5985 16.2454 11.4605C16.3822 11.3225 16.4506 11.155 16.4506 10.9678C16.4506 10.7707 16.3822 10.613 16.2454 10.475C16.1087 10.337 15.9524 10.2681 15.757 10.2681ZM13.0611 7.49885H8.99756C8.84127 7.49885 8.71429 7.54812 8.60684 7.65653C8.48962 7.77478 8.44078 7.9029 8.44078 8.06058C8.44078 8.21825 8.48962 8.34637 8.60684 8.46462C8.71429 8.57303 8.84127 8.6223 8.99756 8.6223H13.0611C13.2173 8.6223 13.3443 8.57303 13.4518 8.46462C13.5592 8.34637 13.6178 8.21825 13.6178 8.06058C13.6178 7.9029 13.5592 7.77478 13.4518 7.65653C13.3443 7.54812 13.2173 7.49885 13.0611 7.49885ZM13.0611 10.3962H8.99756C8.84127 10.3962 8.71429 10.4553 8.60684 10.5637C8.48962 10.682 8.44078 10.8101 8.44078 10.9678C8.44078 11.1254 8.48962 11.2535 8.60684 11.362C8.71429 11.4802 8.84127 11.5295 8.99756 11.5295H13.0611C13.2173 11.5295 13.3443 11.4802 13.4518 11.362C13.5592 11.2535 13.6178 11.1254 13.6178 10.9678C13.6178 10.8101 13.5592 10.682 13.4518 10.5637C13.3443 10.4553 13.2173 10.3962 13.0611 10.3962ZM18.9609 3.12308C18.9609 3.12308 18.9219 3.10337 18.8632 3.15264L18.1502 3.75379C17.9548 3.92132 17.6716 3.92132 17.4762 3.75379L16.6361 3.07381C16.5189 2.97526 16.3919 2.97526 16.2845 3.07381L15.464 3.75379C15.2686 3.92132 14.9951 3.92132 14.79 3.75379L13.9597 3.07381C13.8425 2.97526 13.7155 2.97526 13.5983 3.07381L12.7778 3.75379C12.5824 3.92132 12.3089 3.92132 12.1038 3.75379L11.293 3.07381C11.1758 2.97526 11.0488 2.97526 10.9414 3.07381L10.0916 3.75379C9.89622 3.92132 9.62271 3.92132 9.42735 3.75379L8.60684 3.07381C8.48962 2.97526 8.36264 2.97526 8.25519 3.07381L7.43468 3.75379C7.23932 3.92132 6.96581 3.92132 6.76068 3.75379L6.02808 3.14279C6.02808 3.14279 5.94994 3.11323 5.9304 3.12308C5.91087 3.13293 5.89133 3.15264 5.89133 3.20192V16.6244H3.71306C3.50794 16.6244 3.34188 16.6836 3.20513 16.8314C3.06838 16.9694 3 17.1369 3 17.334V18.7827C3 19.3937 3.2149 19.9258 3.64469 20.3594C4.08425 20.793 4.60195 21 5.21734 21H16.7827C17.398 21 17.9158 20.793 18.3553 20.3594C18.7851 19.9258 19 19.3937 19 18.7827V3.20192C19 3.20192 18.9805 3.13293 18.9609 3.12308ZM14.5751 19.8765H5.21734C4.90476 19.8765 4.65079 19.778 4.4359 19.571C4.23077 19.3641 4.12332 19.1079 4.12332 18.7925V17.7578H14.5751V19.8765ZM17.8767 18.7827C17.8767 19.098 17.7692 19.3542 17.5641 19.5612C17.3492 19.7681 17.0855 19.8667 16.7827 19.8667C16.4799 19.8667 16.2161 19.7681 16.011 19.5612C15.8059 19.3542 15.6984 19.098 15.6984 18.7827V17.334C15.6984 17.1369 15.6398 16.9694 15.4933 16.8314C15.3565 16.6836 15.1905 16.6244 14.9951 16.6244H7.01465V5.03513H17.8767V18.7925V18.7827ZM15.757 8.75042C15.9524 8.75042 16.1087 8.68143 16.2454 8.54346C16.3822 8.4055 16.4506 8.23796 16.4506 8.05072C16.4506 7.85362 16.3822 7.69595 16.2454 7.55798C16.1087 7.42001 15.9524 7.35103 15.757 7.35103C15.5617 7.35103 15.4054 7.42001 15.2686 7.55798C15.1319 7.69595 15.0635 7.85362 15.0635 8.05072C15.0635 8.24782 15.1319 8.4055 15.2686 8.54346C15.4054 8.68143 15.5714 8.75042 15.757 8.75042ZM15.757 11.6773C15.9524 11.6773 16.1087 11.6083 16.2454 11.4704C16.3822 11.3324 16.4506 11.1649 16.4506 10.9776C16.4506 10.7805 16.3822 10.6228 16.2454 10.4849C16.1087 10.3469 15.9524 10.2779 15.757 10.2779C15.5617 10.2779 15.4054 10.3469 15.2686 10.4849C15.1319 10.6228 15.0635 10.7805 15.0635 10.9776C15.0635 11.1747 15.1319 11.3324 15.2686 11.4704C15.4054 11.6083 15.5714 11.6773 15.757 11.6773ZM8.99756 8.61245H13.0611C13.2173 8.61245 13.3443 8.56317 13.4518 8.45477C13.5592 8.33651 13.6178 8.2084 13.6178 8.05072C13.6178 7.89304 13.5592 7.76493 13.4518 7.64667C13.3443 7.53827 13.2173 7.48899 13.0611 7.48899H8.99756C8.84127 7.48899 8.71429 7.53827 8.60684 7.64667C8.48962 7.76493 8.44078 7.89304 8.44078 8.05072C8.44078 8.2084 8.48962 8.33651 8.60684 8.45477C8.71429 8.56317 8.84127 8.61245 8.99756 8.61245ZM8.99756 11.5295H13.0611C13.2173 11.5295 13.3443 11.4802 13.4518 11.362C13.5592 11.2535 13.6178 11.1254 13.6178 10.9678C13.6178 10.8101 13.5592 10.682 13.4518 10.5637C13.3443 10.4553 13.2173 10.3962 13.0611 10.3962H8.99756C8.84127 10.3962 8.71429 10.4553 8.60684 10.5637C8.48962 10.682 8.44078 10.8101 8.44078 10.9678C8.44078 11.1254 8.48962 11.2535 8.60684 11.362C8.71429 11.4802 8.84127 11.5295 8.99756 11.5295ZM13.4518 10.5736C13.3443 10.4652 13.2173 10.406 13.0611 10.406H8.99756C8.84127 10.406 8.71429 10.4652 8.60684 10.5736C8.48962 10.6918 8.44078 10.8199 8.44078 10.9776C8.44078 11.1353 8.48962 11.2634 8.60684 11.3718C8.71429 11.4901 8.84127 11.5393 8.99756 11.5393H13.0611C13.2173 11.5393 13.3443 11.4901 13.4518 11.3718C13.5592 11.2634 13.6178 11.1353 13.6178 10.9776C13.6178 10.8199 13.5592 10.6918 13.4518 10.5736ZM13.4518 7.64667C13.3443 7.53827 13.2173 7.48899 13.0611 7.48899H8.99756C8.84127 7.48899 8.71429 7.53827 8.60684 7.64667C8.48962 7.76493 8.44078 7.89304 8.44078 8.05072C8.44078 8.2084 8.48962 8.33651 8.60684 8.45477C8.71429 8.56317 8.84127 8.61245 8.99756 8.61245H13.0611C13.2173 8.61245 13.3443 8.56317 13.4518 8.45477C13.5592 8.33651 13.6178 8.2084 13.6178 8.05072C13.6178 7.89304 13.5592 7.76493 13.4518 7.64667ZM16.2454 10.475C16.1087 10.337 15.9524 10.2681 15.757 10.2681C15.5617 10.2681 15.4054 10.337 15.2686 10.475C15.1319 10.613 15.0635 10.7707 15.0635 10.9678C15.0635 11.1649 15.1319 11.3225 15.2686 11.4605C15.4054 11.5985 15.5714 11.6675 15.757 11.6675C15.9524 11.6675 16.1087 11.5985 16.2454 11.4605C16.3822 11.3225 16.4506 11.155 16.4506 10.9678C16.4506 10.7707 16.3822 10.613 16.2454 10.475ZM16.2454 7.55798C16.1087 7.42001 15.9524 7.35103 15.757 7.35103C15.5617 7.35103 15.4054 7.42001 15.2686 7.55798C15.1319 7.69595 15.0635 7.85362 15.0635 8.05072C15.0635 8.24782 15.1319 8.4055 15.2686 8.54346C15.4054 8.68143 15.5714 8.75042 15.757 8.75042C15.9524 8.75042 16.1087 8.68143 16.2454 8.54346C16.3822 8.4055 16.4506 8.23796 16.4506 8.05072C16.4506 7.85362 16.3822 7.69595 16.2454 7.55798ZM16.2454 7.55798C16.1087 7.42001 15.9524 7.35103 15.757 7.35103C15.5617 7.35103 15.4054 7.42001 15.2686 7.55798C15.1319 7.69595 15.0635 7.85362 15.0635 8.05072C15.0635 8.24782 15.1319 8.4055 15.2686 8.54346C15.4054 8.68143 15.5714 8.75042 15.757 8.75042C15.9524 8.75042 16.1087 8.68143 16.2454 8.54346C16.3822 8.4055 16.4506 8.23796 16.4506 8.05072C16.4506 7.85362 16.3822 7.69595 16.2454 7.55798ZM16.2454 10.475C16.1087 10.337 15.9524 10.2681 15.757 10.2681C15.5617 10.2681 15.4054 10.337 15.2686 10.475C15.1319 10.613 15.0635 10.7707 15.0635 10.9678C15.0635 11.1649 15.1319 11.3225 15.2686 11.4605C15.4054 11.5985 15.5714 11.6675 15.757 11.6675C15.9524 11.6675 16.1087 11.5985 16.2454 11.4605C16.3822 11.3225 16.4506 11.155 16.4506 10.9678C16.4506 10.7707 16.3822 10.613 16.2454 10.475ZM13.4518 7.64667C13.3443 7.53827 13.2173 7.48899 13.0611 7.48899H8.99756C8.84127 7.48899 8.71429 7.53827 8.60684 7.64667C8.48962 7.76493 8.44078 7.89304 8.44078 8.05072C8.44078 8.2084 8.48962 8.33651 8.60684 8.45477C8.71429 8.56317 8.84127 8.61245 8.99756 8.61245H13.0611C13.2173 8.61245 13.3443 8.56317 13.4518 8.45477C13.5592 8.33651 13.6178 8.2084 13.6178 8.05072C13.6178 7.89304 13.5592 7.76493 13.4518 7.64667ZM13.4518 10.5736C13.3443 10.4652 13.2173 10.406 13.0611 10.406H8.99756C8.84127 10.406 8.71429 10.4652 8.60684 10.5736C8.48962 10.6918 8.44078 10.8199 8.44078 10.9776C8.44078 11.1353 8.48962 11.2634 8.60684 11.3718C8.71429 11.4901 8.84127 11.5393 8.99756 11.5393H13.0611C13.2173 11.5393 13.3443 11.4901 13.4518 11.3718C13.5592 11.2634 13.6178 11.1353 13.6178 10.9776C13.6178 10.8199 13.5592 10.6918 13.4518 10.5736ZM13.4518 10.5736C13.3443 10.4652 13.2173 10.406 13.0611 10.406H8.99756C8.84127 10.406 8.71429 10.4652 8.60684 10.5736C8.48962 10.6918 8.44078 10.8199 8.44078 10.9776C8.44078 11.1353 8.48962 11.2634 8.60684 11.3718C8.71429 11.4901 8.84127 11.5393 8.99756 11.5393H13.0611C13.2173 11.5393 13.3443 11.4901 13.4518 11.3718C13.5592 11.2634 13.6178 11.1353 13.6178 10.9776C13.6178 10.8199 13.5592 10.6918 13.4518 10.5736ZM13.4518 7.64667C13.3443 7.53827 13.2173 7.48899 13.0611 7.48899H8.99756C8.84127 7.48899 8.71429 7.53827 8.60684 7.64667C8.48962 7.76493 8.44078 7.89304 8.44078 8.05072C8.44078 8.2084 8.48962 8.33651 8.60684 8.45477C8.71429 8.56317 8.84127 8.61245 8.99756 8.61245H13.0611C13.2173 8.61245 13.3443 8.56317 13.4518 8.45477C13.5592 8.33651 13.6178 8.2084 13.6178 8.05072C13.6178 7.89304 13.5592 7.76493 13.4518 7.64667ZM16.2454 10.475C16.1087 10.337 15.9524 10.2681 15.757 10.2681C15.5617 10.2681 15.4054 10.337 15.2686 10.475C15.1319 10.613 15.0635 10.7707 15.0635 10.9678C15.0635 11.1649 15.1319 11.3225 15.2686 11.4605C15.4054 11.5985 15.5714 11.6675 15.757 11.6675C15.9524 11.6675 16.1087 11.5985 16.2454 11.4605C16.3822 11.3225 16.4506 11.155 16.4506 10.9678C16.4506 10.7707 16.3822 10.613 16.2454 10.475ZM16.2454 7.55798C16.1087 7.42001 15.9524 7.35103 15.757 7.35103C15.5617 7.35103 15.4054 7.42001 15.2686 7.55798C15.1319 7.69595 15.0635 7.85362 15.0635 8.05072C15.0635 8.24782 15.1319 8.4055 15.2686 8.54346C15.4054 8.68143 15.5714 8.75042 15.757 8.75042C15.9524 8.75042 16.1087 8.68143 16.2454 8.54346C16.3822 8.4055 16.4506 8.23796 16.4506 8.05072C16.4506 7.85362 16.3822 7.69595 16.2454 7.55798ZM16.2454 7.55798C16.1087 7.42001 15.9524 7.35103 15.757 7.35103C15.5617 7.35103 15.4054 7.42001 15.2686 7.55798C15.1319 7.69595 15.0635 7.85362 15.0635 8.05072C15.0635 8.24782 15.1319 8.4055 15.2686 8.54346C15.4054 8.68143 15.5714 8.75042 15.757 8.75042C15.9524 8.75042 16.1087 8.68143 16.2454 8.54346C16.3822 8.4055 16.4506 8.23796 16.4506 8.05072C16.4506 7.85362 16.3822 7.69595 16.2454 7.55798ZM16.2454 10.475C16.1087 10.337 15.9524 10.2681 15.757 10.2681C15.5617 10.2681 15.4054 10.337 15.2686 10.475C15.1319 10.613 15.0635 10.7707 15.0635 10.9678C15.0635 11.1649 15.1319 11.3225 15.2686 11.4605C15.4054 11.5985 15.5714 11.6675 15.757 11.6675C15.9524 11.6675 16.1087 11.5985 16.2454 11.4605C16.3822 11.3225 16.4506 11.155 16.4506 10.9678C16.4506 10.7707 16.3822 10.613 16.2454 10.475ZM13.4518 7.64667C13.3443 7.53827 13.2173 7.48899 13.0611 7.48899H8.99756C8.84127 7.48899 8.71429 7.53827 8.60684 7.64667C8.48962 7.76493 8.44078 7.89304 8.44078 8.05072C8.44078 8.2084 8.48962 8.33651 8.60684 8.45477C8.71429 8.56317 8.84127 8.61245 8.99756 8.61245H13.0611C13.2173 8.61245 13.3443 8.56317 13.4518 8.45477C13.5592 8.33651 13.6178 8.2084 13.6178 8.05072C13.6178 7.89304 13.5592 7.76493 13.4518 7.64667ZM13.4518 10.5736C13.3443 10.4652 13.2173 10.406 13.0611 10.406H8.99756C8.84127 10.406 8.71429 10.4652 8.60684 10.5736C8.48962 10.6918 8.44078 10.8199 8.44078 10.9776C8.44078 11.1353 8.48962 11.2634 8.60684 11.3718C8.71429 11.4901 8.84127 11.5393 8.99756 11.5393H13.0611C13.2173 11.5393 13.3443 11.4901 13.4518 11.3718C13.5592 11.2634 13.6178 11.1353 13.6178 10.9776C13.6178 10.8199 13.5592 10.6918 13.4518 10.5736ZM13.4518 10.5736C13.3443 10.4652 13.2173 10.406 13.0611 10.406H8.99756C8.84127 10.406 8.71429 10.4652 8.60684 10.5736C8.48962 10.6918 8.44078 10.8199 8.44078 10.9776C8.44078 11.1353 8.48962 11.2634 8.60684 11.3718C8.71429 11.4901 8.84127 11.5393 8.99756 11.5393H13.0611C13.2173 11.5393 13.3443 11.4901 13.4518 11.3718C13.5592 11.2634 13.6178 11.1353 13.6178 10.9776C13.6178 10.8199 13.5592 10.6918 13.4518 10.5736ZM13.4518 7.64667C13.3443 7.53827 13.2173 7.48899 13.0611 7.48899H8.99756C8.84127 7.48899 8.71429 7.53827 8.60684 7.64667C8.48962 7.76493 8.44078 7.89304 8.44078 8.05072C8.44078 8.2084 8.48962 8.33651 8.60684 8.45477C8.71429 8.56317 8.84127 8.61245 8.99756 8.61245H13.0611C13.2173 8.61245 13.3443 8.56317 13.4518 8.45477C13.5592 8.33651 13.6178 8.2084 13.6178 8.05072C13.6178 7.89304 13.5592 7.76493 13.4518 7.64667ZM16.2454 10.475C16.1087 10.337 15.9524 10.2681 15.757 10.2681C15.5617 10.2681 15.4054 10.337 15.2686 10.475C15.1319 10.613 15.0635 10.7707 15.0635 10.9678C15.0635 11.1649 15.1319 11.3225 15.2686 11.4605C15.4054 11.5985 15.5714 11.6675 15.757 11.6675C15.9524 11.6675 16.1087 11.5985 16.2454 11.4605C16.3822 11.3225 16.4506 11.155 16.4506 10.9678C16.4506 10.7707 16.3822 10.613 16.2454 10.475ZM16.2454 7.55798C16.1087 7.42001 15.9524 7.35103 15.757 7.35103C15.5617 7.35103 15.4054 7.42001 15.2686 7.55798C15.1319 7.69595 15.0635 7.85362 15.0635 8.05072C15.0635 8.24782 15.1319 8.4055 15.2686 8.54346C15.4054 8.68143 15.5714 8.75042 15.757 8.75042C15.9524 8.75042 16.1087 8.68143 16.2454 8.54346C16.3822 8.4055 16.4506 8.23796 16.4506 8.05072C16.4506 7.85362 16.3822 7.69595 16.2454 7.55798ZM16.2454 7.55798C16.1087 7.42001 15.9524 7.35103 15.757 7.35103C15.5617 7.35103 15.4054 7.42001 15.2686 7.55798C15.1319 7.69595 15.0635 7.85362 15.0635 8.05072C15.0635 8.24782 15.1319 8.4055 15.2686 8.54346C15.4054 8.68143 15.5714 8.75042 15.757 8.75042C15.9524 8.75042 16.1087 8.68143 16.2454 8.54346C16.3822 8.4055 16.4506 8.23796 16.4506 8.05072C16.4506 7.85362 16.3822 7.69595 16.2454 7.55798ZM16.2454 10.475C16.1087 10.337 15.9524 10.2681 15.757 10.2681C15.5617 10.2681 15.4054 10.337 15.2686 10.475C15.1319 10.613 15.0635 10.7707 15.0635 10.9678C15.0635 11.1649 15.1319 11.3225 15.2686 11.4605C15.4054 11.5985 15.5714 11.6675 15.757 11.6675C15.9524 11.6675 16.1087 11.5985 16.2454 11.4605C16.3822 11.3225 16.4506 11.155 16.4506 10.9678C16.4506 10.7707 16.3822 10.613 16.2454 10.475ZM13.4518 7.64667C13.3443 7.53827 13.2173 7.48899 13.0611 7.48899H8.99756C8.84127 7.48899 8.71429 7.53827 8.60684 7.64667C8.48962 7.76493 8.44078 7.89304 8.44078 8.05072C8.44078 8.2084 8.48962 8.33651 8.60684 8.45477C8.71429 8.56317 8.84127 8.61245 8.99756 8.61245H13.0611C13.2173 8.61245 13.3443 8.56317 13.4518 8.45477C13.5592 8.33651 13.6178 8.2084 13.6178 8.05072C13.6178 7.89304 13.5592 7.76493 13.4518 7.64667ZM13.4518 10.5736C13.3443 10.4652 13.2173 10.406 13.0611 10.406H8.99756C8.84127 10.406 8.71429 10.4652 8.60684 10.5736C8.48962 10.6918 8.44078 10.8199 8.44078 10.9776C8.44078 11.1353 8.48962 11.2634 8.60684 11.3718C8.71429 11.4901 8.84127 11.5393 8.99756 11.5393H13.0611C13.2173 11.5393 13.3443 11.4901 13.4518 11.3718C13.5592 11.2634 13.6178 11.1353 13.6178 10.9776C13.6178 10.8199 13.5592 10.6918 13.4518 10.5736Z" fill="#253844"/>
</svg>
