<svg width="48" height="48" viewBox="0 0 48 48" fill="none" xmlns="http://www.w3.org/2000/svg">
<path fill-rule="evenodd" clip-rule="evenodd" d="M27.4109 24.3019C27.4109 24.9273 27.2254 25.5387 26.878 26.0587C26.5305 26.5787 26.0366 26.984 25.4587 27.2233C24.8809 27.4626 24.2451 27.5252 23.6317 27.4031C23.0183 27.281 22.4549 26.9797 22.0127 26.5374C21.5705 26.0951 21.2694 25.5316 21.1476 24.9182C21.0257 24.3047 21.0884 23.6689 21.3279 23.0912C21.5674 22.5134 21.9728 22.0196 22.4929 21.6723C23.013 21.325 23.6245 21.1397 24.2499 21.1399C25.0884 21.1402 25.8924 21.4734 26.4851 22.0664C27.0779 22.6593 27.4109 23.4635 27.4109 24.3019Z" stroke="#253844" stroke-width="1.5" stroke-linecap="round" stroke-linejoin="round"/>
<path fill-rule="evenodd" clip-rule="evenodd" d="M24.252 31.6C28.06 31.6 31.543 28.862 33.504 24.3C31.543 19.736 28.06 17 24.252 17C20.444 17 16.961 19.738 15 24.3C16.961 28.864 20.444 31.6 24.252 31.6Z" stroke="#253844" stroke-width="1.5" stroke-linecap="round" stroke-linejoin="round"/>
</svg>
